<?xml version="1.0" encoding="utf-8"?>
<!-- Generator: Adobe Illustrator 18.1.1, SVG Export Plug-In . SVG Version: 6.00 Build 0)  -->
<svg version="1.1" id="Layer_1" xmlns="http://www.w3.org/2000/svg" xmlns:xlink="http://www.w3.org/1999/xlink" x="0px" y="0px"
	 viewBox="0 313.4 607.1 188.8" enable-background="new 0 313.4 607.1 188.8" xml:space="preserve">
<g>
	<path d="M116.9,390.5c-1.8,6.2-4.1,12.6-6.4,19c-1.4,3.2-3.2,6.2-4.6,9.2c-0.2,0.7-0.9,1.4-1.4,1.8c-3.9,2.5-7.3,5.5-12.4,5
		c-3.7-0.2-7.3-0.5-10.8-2.3c-2.1-1.4-3.9-2.5-5.3-4.6c-0.2-0.7-1.4-0.9-2.1-1.4c-0.2-0.7-0.9-0.9-0.9-1.6
		c-1.1-3.2-2.1-6.6-3.2-10.1c-1.6-4.6-3.2-9.4-4.8-14.2c-0.7-2.1-2.1-3.9-2.1-6.2c0.2-0.9-0.9-1.4-2.1-0.9c-3.2,1.1-6.2,2.3-9.4,3.2
		c-3.7,0.9-7.1,2.1-10.8,2.7c-4.6,0.9-5.5,1.6-5.5,6.4c0,3.2,0.7,6.2,0.2,9.4c-0.2,4.1-1.4,8-2.1,12.1c-0.5,2.7-1.4,5.7-1.4,8.7
		c-0.2,4.3-1.1,8.2-3.2,12.1c-1.4,2.5-2.1,5.3-3.2,8c-0.9,2.1-2.5,3.9-5,3.9c-3-0.2-5-2.1-6.2-5c-0.9-3-0.9-6.2-0.5-9.6
		c0-0.7-0.2-1.4,0-1.8c0.2-1.1-0.2-2.7,1.4-3.2c1.6-0.2,4.3,0.9,4.3,2.5c0.2,2.7,0.2,5.5,0.5,8c0,0.7,0,1.4,0.2,2.1
		c5.3-16.7,7.8-34.3,10.5-51.7c-8,0.9-15.1,0.2-21.7-3.9c-0.5-0.2-0.9-0.5-1.4-0.9c-2.5-2.1-5-4.3-7.3-6.6c-0.2-0.2-0.5-0.7-0.7-0.9
		c0.5-0.2,0.9-0.9,1.4-0.9c3.9-0.2,8-0.5,11.4,1.6c2.1,1.1,3.9,2.5,5.9,3.4c1.1,0.5,2.7,0.9,3.9,0.9c2.7,0,5.5-0.2,8.2-0.2
		c1.8,0,2.5-0.7,2.7-2.1c1.4-6.4,3.2-12.6,3.9-19.2c0.5-3.9,1.4-7.3,2.7-10.8c1.4-3.7,2.7-6.9,3.2-10.8c0.5-2.7,1.1-5.7,1.6-8.5
		c0.5-2.1,0.9-3.9,3-5.5c3.2-2.1,6.4-3.9,10.5-3.4c0.9,0,2.1-0.2,3.2-0.7c3.9-1.4,7.3-0.9,10.3,1.4c3,2.1,3.9,5.3,4.1,8.9
		c0.2,2.7,0.2,5.7,0.9,8.5c1.4,7.1,3.2,14.4,4.8,21.5c0.2,0.9,0.5,1.8,0.7,2.7c0.2,1.1,0.9,1.1,1.8,0.9c3-1.1,5.9-2.3,8.9-3.4
		c2.3-0.9,7.1,0.9,8,3c0.7,1.8,0,2.7-2.1,2.7c-0.9,0-2.1-0.2-3.2-0.7c-1.4-0.9-2.7-0.5-4.1,0.2c-2.1,1.1-3.9,2.3-5.9,3.2
		c-1.4,0.5-1.4,1.4-1.1,2.5c1.1,4.8,2.1,9.4,3.2,14.2c0.2,1.8,0.5,3.4-0.9,4.8c-1.8,1.6,0,3.2-0.2,5c-0.2,2.5,0,5,0.2,7.5
		c0,0.7,0.2,1.4,0,2.1c0,1.4,0,2.5-0.2,3.7s-0.2,1.8,0.5,2.7c2.3,2.5,4.8,4.6,8.2,5c0.9,0.2,2.1,0,2.7-0.5c3.2-2.3,6.2-4.6,7.3-8.5
		c1.4-5,3.9-9.4,5.7-14.2c1.4-3.2,2.5-6.9,3.7-10.1c0.2-0.5,0.2-0.9,0.5-1.6C118.3,386.6,117.4,388.9,116.9,390.5z M61.3,378.6
		c-3.9-13.7-6.4-27.5-11.4-41c-0.7,1.6-1.4,2.5-1.6,3.4c-0.9,3.2-2.1,6.4-3,9.6c-1.4,4.8-3,9.4-3.9,14.2c-0.7,2.7,0,5.9-0.2,8.9
		c-0.2,3.2-0.9,6.9-1.4,10.3C47.6,384.6,54.2,380.9,61.3,378.6z"/>
	<path d="M132.7,416.8c4.3-6.2,8.5-11,12.1-17.6c0.5-1.1,1.8-3.7,2.3-4.8c0.5-0.9,0.5-1.6,0.9-2.5c0.7-1.4,1.1-2.7,1.8-3.9
		c0.2-0.2,0.9-0.2,1.1-0.2c1.8,0.5,0.7,0.2,0,1.8c-0.2,0.9-0.2,2.1-0.7,3.2c-0.5,1.1-0.9,2.3-1.4,3.2c-2.1,3.7-4.3,7.3-6.6,10.8
		c-2.1,3.2-3.7,6.9-5.7,9.8c-1.6,2.1-3,4.3-4.8,6.4c-2.1,2.1-4.3,3.4-7.5,2.7c-0.9-0.2-2.1-0.7-3.2-0.9c-3.2-0.9-5-3.7-6.9-6.2
		c-1.6-3-2.1-6.2-2.1-9.2c0.2-4.6,0.2-9.4,0.2-14c0.2-3.9,0.2-7.5,0.7-11.2c0-2.3,0.5-4.3,0.7-6.6c0.2-2.5,0.9-17.4,1.1-19.7
		c0.2-2.7,0.5-5.3,0.7-8c0.2-2.3,0.2-4.6,0.5-6.9c0.2-2.7,0.9-5.5,1.4-8.5c0.2-1.4,1.1-2.5,2.7-2.7c2.3-0.2,4.3,0.2,6.9,1.1
		c1.6,0.5,2.7,1.6,3.9,2.3c1.6,0.9,2.7,2.7,3.2,4.6c0.9,2.1,0.5,3.9,0.2,5.7c0,2.3-0.2,4.6-0.2,6.9c-0.2,2.7-0.7,5.5-0.9,8
		c-0.2,1.4-0.9,15.1-0.9,16.7c0,1.4-0.2,3-0.5,4.6c-0.2,2.1,0,3.9-0.5,5.9c-0.7,3,0,6.2-0.2,9.2c-0.2,2.5-0.5,5-0.7,7.3
		c-0.2,0.9,0.2,2.1,0.2,3c0,3.7-0.2,7.3-0.2,11c0,0.2,0,0.5,0,0.7c0.2,0,0.2,0.2,0.2,0.2C131.6,418.2,132,417.5,132.7,416.8z"/>
	<path d="M168.4,416.8c4.3-6.2,8.5-11,12.1-17.6c0.5-1.1,1.8-3.7,2.3-4.8c0.5-0.9,0.5-1.6,0.9-2.5c0.7-1.4,1.1-2.7,1.8-3.9
		c0.2-0.2,0.9-0.2,1.1-0.2c1.8,0.5,0.7,0.2,0,1.8c-0.2,0.9-0.2,2.1-0.7,3.2c-0.5,1.1-0.9,2.3-1.4,3.2c-2.1,3.7-4.3,7.3-6.6,10.8
		c-2.1,3.2-3.7,6.9-5.7,9.8c-1.6,2.1-3,4.3-4.8,6.4c-2.1,2.1-4.3,3.4-7.5,2.7c-0.9-0.2-2.1-0.7-3.2-0.9c-3.2-0.9-5-3.7-6.9-6.2
		c-1.6-2.7-2.1-5.9-2.1-8.9c0.2-4.6,0.2-9.4,0.2-14c0.2-3.9,0.2-7.5,0.7-11.2c0-2.3,0.5-4.3,0.7-6.6c0.2-2.5,0.9-17.4,1.1-19.7
		c0.2-2.7,0.5-5.3,0.7-8c0.2-2.3,0.2-4.6,0.5-6.9c0.2-2.7,0.9-5.5,1.4-8.5c0.2-1.4,1.1-2.5,2.7-2.7c2.3-0.2,4.3,0.2,6.9,1.1
		c1.6,0.5,2.7,1.6,3.9,2.3c1.6,0.9,2.7,2.7,3.2,4.6c0.9,2.1,0.5,3.9,0.2,5.7c0,2.3-0.2,4.6-0.2,6.9c-0.2,2.7-0.7,5.5-0.9,8
		c-0.2,1.4-0.9,15.1-0.9,16.7c0,1.4-0.2,3-0.5,4.6c-0.2,2.1,0,3.9-0.5,5.9c-0.7,3,0,6.2-0.2,9.2c-0.2,2.5-0.5,5-0.7,7.3
		c-0.2,0.9,0.2,2.1,0.2,3c0,3.7-0.2,7.3-0.2,11c0,0.2,0,0.5,0,0.7c0.2,0,0.2,0.2,0.2,0.2C167.2,418.2,167.7,417.5,168.4,416.8z"/>
	<path d="M219.4,396.7c-1.6,3.4-3.2,7.1-5.3,11c-0.7,1.1-1.1,2.7-1.8,3.9c-2.1,3.2-4.3,6.6-7.3,8.9c-0.9,0.7-2.1,2.5-3,3
		c-1.6,0.2-3.4,0.9-5,1.1c-2.1,0.2-3.9,0.2-6.2-0.5c-3.2-1.4-5-4.1-6.2-7.3c-0.5-1.6-0.7-3.4-1.1-5.3c-1.1-3.7-0.5-7.1-0.9-10.5
		c-0.2-3.9,0.2-7.3,0.7-11.2c0.2-2.1,0.2-4.3,0.7-6.4c0.2-1.6,0.5-3.2,0.9-5c0.2-0.7,0.2-1.4,0.2-2.1c0.7-3,2.3-4.3,5.3-4.3
		c1.8,0,3.7,0.9,5.5,1.6c2.7,0.9,3.9,3.4,5.3,5.5c0.7,1.1,0.5,2.7,0.7,3.9c0.2,0.7,0.2,1.4,0.5,2.1c0.2,1.1,0.2,2.3,0.2,3.4
		c0,2.7-0.2,5.3-0.2,8c0,1.6-0.2,3.4-0.2,5c0,0.7,0,1.1,0,1.8c-0.9,4.1-1.4,8.5-1.6,12.8c0,0.7,0.2,1.4-0.2,1.8s-0.9,1.4-1.6,1.4
		c-1.4,0.2-1.4,1.1-1.8,2.3c0.9-0.2,1.8-0.9,2.7-0.9c2.7-0.5,4.3-2.7,6.2-4.3c5.5-5.5,8.9-12.6,12.6-19.4c0.2-0.9,0.5-1.6,0.9-2.7
		c0.9,0.2,0.7-0.2,1.4,0.5C221.2,395.3,219.9,395.5,219.4,396.7z M185.5,358.7c0-1.6,1.1-2.3,2.7-2.7c2.1-0.5,4.3-1.4,6.6-1.6
		c1.8-0.2,3.9,0.7,5.7,0.9c1.8,0.5,2.1,2.1,2.1,3.4c0.2,0.9-0.2,2.5-0.9,3.2c-1.6,1.4-3.7,2.7-6.2,2.7c-2.3-0.5-4.6-0.9-6.9-1.4
		C187.1,362.8,185.5,360.3,185.5,358.7z"/>
	<path d="M275.2,399c-1.6,3-3.2,5.9-5.3,9.2c-0.7,0.9-0.9,2.1-1.8,3.2c-2.1,2.7-4.1,5.3-7.3,7.3c-0.9,0.7-2.1,2.1-3,2.5
		c-1.6,0.2-3.2,0.7-5,0.9c-1.4,0.2-2.7,0.2-4.1,0c-0.9,0.2-1.4,0.9-2.3,1.4c-0.7,0.2-1.4,0.5-2.3,0.7c-0.5,0.2-8.7,1.6-10.3,1.8
		c-0.9,0.2-1.8,0.7-2.7-0.2c-0.2,0-0.2,0-0.2,0c-2.1,0.7-3.9-0.9-5.5-1.6c-0.2-0.2-0.7-0.5-0.9-0.5c-1.1-0.2-1.6-0.9-2.1-1.8
		c-0.2-0.7,0.9-2.3,1.6-1.6c1.6,1.1,3.2,2.1,5.3,2.3c0.5,0.2,1.1,0.2,1.8,0.5c2.3,0.2,3.9-0.9,5-2.3c0.2-0.2,0.5-0.7,0.9-0.7
		c3.2-1.4,4.8-3.9,6.2-6.6c0.7-1.4,1.4-2.7,1.4-4.3c0-3.2,0-6.2-1.4-9.6c-0.9-2.1-2.3-4.3-3.9-6.2c-1.1-1.4-3-2.7-4.3-4.3
		c-1.6-2.1-3.9-3.7-5.7-5.5c-0.2,0-2.7-2.5-2.7-2.5c-2.5-2.7-3.9-4.8-5-8c-0.9-2.7-0.9-5,0-7.3c0.5-0.9,1.4-1.8,2.3-2.7
		c0.7-0.7,1.6-1.1,2.3-1.8c1.4-1.4,3.2-2.1,5.3-2.3c2.1-0.2,4.3,0.5,6.4,2.1c0.9,0.9,2.7,4.3,0.9,4.3c-0.2,0-0.9,0.7-0.9,1.1
		c-0.5,1.4-0.9,3-1.4,4.3c-0.2,0.9-1.1,1.4-1.6,2.1c-1.4,2.1-0.9,3,1.4,5.3c2.5,2.7,5.5,4.8,8.7,7.1c2.7,1.8,5.3,3.9,7.5,6.2
		c1.4,1.4,2.5,2.7,3.7,3.9c0.9,1.1,2.1,2.1,3,3.2c1.8,1.8,2.1,3.9,2.5,5.7c0.2,0.9,0.7,1.8,0.7,2.7c0.2,6.2-5,9.6-6.9,11.4
		c-0.2,0.2-0.7,0.7-0.9,0.9c0.5-0.2,0.9-0.2,1.4-0.5c2.7-0.5,4.3-2.1,6.2-3.7c5.5-4.6,9.2-10.3,12.6-16.2c0.2-0.5,0.5-1.1,0.9-2.1
		c0.9,0.2,0.7-0.2,1.4,0.5C276.8,397.8,275.7,398.1,275.2,399z"/>
	<path d="M317.8,400.3c1.4-2.1,3.9-5,5.3-7.3c2.3-3.7,4.1-5.3,5.7-9.2c0.9-2.5,2.1-4.8,3.2-7.3c0.2,1.1,0.9,0.9,0.5,2.1
		c-4.6,18.8-17.8,27.5-20.1,27.9c-0.7,0-0.9,0.2-1.1,0.9c-0.2,1.4-0.9,2.5-1.4,3.4c-1.1,2.1-1.6,4.3-1.6,6.9c0,2.1-1.1,3.9-3.2,5
		c-2.1,1.1-4.3,1.4-6.6,0.9c-1.4,0-2.7-0.5-4.3-0.9c-1.6-0.5-3.2-0.9-5-1.6c-1.4-0.7-2.5-1.4-3.9-2.1c-3.2-1.4-5.5-3.9-8-5.7
		c-2.5-2.1-4.3-4.6-5-7.5c-0.5-1.6-0.5-3.2-0.9-4.8c-0.9-3.2-0.2-6.2,0.2-9.2c0.7-2.5,2.1-5,3.2-7.3c1.4-2.5,2.7-4.8,4.3-7.1
		c1.4-1.8,3.2-3.7,5.7-4.3c0.9-0.2,1.4-0.9,2.1-1.4c1.6-1.4,3.7-1.1,5.5-0.9c2.1,0.2,3,1.4,3.9,2.7c0.7,1.1,1.4,2.3,2.1,3.7
		c0.5,0.7,0.9,0.5,1.4,0.2c0.9-0.2,2.1-0.9,2.7-0.7c1.4,0.5,2.7,0.7,3.9,2.1c0.9,0.9,1.6,1.4,2.3,2.3c2.1,2.7,2.7,5.5,2.5,8.7
		c0,0.9,0.2,1.4,0.2,2.3c0.2,1.4,0.2,3.2,0.5,4.6c0,1.8,0,3.4,0,5.5C314.4,401,316.4,401.9,317.8,400.3z M293.8,389.4
		c-0.9,1.4-2.1,2.5-2.5,3.9c-1.1,2.7-1.8,5.3-1.6,8.2c0,0.9,0,2.1,0.2,3c0.5,1.4,0.5,2.7,0.5,4.3c0,1.1,0.2,2.5,0.9,3.2
		c1.4,2.1,3.9,2.5,6.2,2.7c1.4,0.2,2.5-0.9,3.4-1.6c2.7-2.1,5.3-4.3,5.9-8.2c-6.6-3.2-11-8.2-12.6-15.6
		C294.2,389.4,294,389.4,293.8,389.4z M307.9,400.3c0.2-2.1,0.2-3.9,0.2-5.7c0.2-2.3-0.7-4.3-0.9-6.9c-0.2-3.2-4.1-6.2-6.6-6.9
		c-0.2-0.2-0.9,0-0.9,0.2c-0.2,0.9-0.9,2.1-0.9,3c0.5,2.1,1.4,3.9,3,5.7c0.2,0.2,0.7,0.9,0.9,1.4c0.5,0.7,0.9,1.4,1.1,2.1
		c0.9,1.4,1.6,3,2.3,4.3c0.5,0.9,0.9,1.6,1.1,2.5C307.7,400.3,307.9,400.3,307.9,400.3z"/>
	<path d="M352.3,375.4c3-2.7,6.2-3.9,10.3-3.2c3.4,0.7,6.2,2.5,8.5,5.3c2.1,2.1,3.2,4.6,4.3,7.3c0.7,2.1,0.5,3.7-0.2,5.5
		c-0.2,0.9-0.2,2.1-0.7,3.2c-0.5,1.6-0.9,3.2-1.6,4.6c0,0.2-0.2,0.5-0.2,0.9c-0.7,3.9-1.4,7.8-2.1,11.7c0,0.5,0,0.9,0,1.4
		c0,1.4,0,3.7,0,5.5c0.9-0.7,4.3-1.6,5.3-2.3c3.2-2.5,6.4-5,7.8-8.7c1.4-3,4.3-8.5,5.5-11.4c0.2-0.9,0.2-1.6,0.5-2.7
		c0.7-1.8,3-3.4,3.2-2.7c0.2,0.9-0.2,2.3-0.2,3.2c-0.7,2.5-1.4,5-3.2,8.2c-1.4,2.5-2.3,4.1-3.2,6.2c-0.7,1.4-1.8,2.5-2.5,3.9
		c-1.1,2.7-3.2,4.6-5.7,6.2c-1.1,0.9-2.3,1.4-3.7,2.1c-0.7,0.2-1.4,0.5-2.3,0.9c-0.9,0.2-2.1,0.5-3.2,0.9c-2.1,0.9-3.7,0.2-5.5-0.5
		c-2.5-0.9-4.3-2.7-6.4-4.3c-3.9-3.2-4.1-7.5-4.6-12.1c0-1.8,0.7-3.4,0.9-5.3c0-1.8,0.7-3.7,1.1-5.3c0.9-3.2,2.1-6.4,3.2-9.6
		c0.7-1.6,1.6-3.2,2.3-4.8c0.2-0.9,0.2-2.1,0.5-3c0.2-0.9-0.2-1.1-0.9-0.9c-1.4,0.2-2.7,0.2-4.1,0.9c-0.9,0.2-1.6,1.1-2.3,2.1
		c-1.4,1.4-2.7,3.2-3.4,5c-0.9,2.1-1.8,4.3-2.3,6.6c-0.7,2.3-0.9,4.6-1.4,7.1c-0.2,1.4,0,3.2,0.2,4.8c0,1.4,0.2,2.7,0.2,4.1
		c0.2,1.4,0.2,3,0.2,4.3c0,1.1,0.2,2.3-0.2,3.4c-0.5,1.1-0.2,2.7-0.2,3.9c-0.2,1.6-0.5,3.4-0.9,5c-0.2,1.4-2.1,2.7-4.1,2.1
		c-1.8-0.2-3.9-0.9-5.5-1.6c-2.1-0.9-4.1-1.4-6.2-2.1c-1.4-0.2-1.4-1.1-1.4-2.3c0.2-1.6,0.2-3.2,0.2-5c0-2.1-0.2-4.1-0.7-6.2
		c-0.2-3,0-5.9,0.2-9.2c0-0.9-0.2-2.1-0.2-3.2c0-1.4,0.2-2.7,0.2-4.1c0.2-2.5,0.2-5,0.2-7.3c0.2-0.9-0.2-1.8-0.2-2.7
		c0.2-2.7,0.5-5.3,0.7-8c0-1.4,0.2-3,0-4.3c-0.5-2.3,1.1-2.7,2.7-3.7c2.1-1.1,4.1-0.2,6.2,0.2c2.3,0.5,3.9,2.3,5.9,3.9
		c1.6,1.1,2.7,2.7,3.9,4.3c0.5,0.9,0.9,1.6,0.9,2.7c0.2,1.4,0,2.7,0,3.9C349.1,378.6,350.7,377,352.3,375.4z"/>
	<path d="M514.8,389.4c-0.2,1.4-0.2,2.7-0.9,3.4c-2.1,3.4-4.3,6.4-7.3,9.2c-3.9,3.2-7.5,6.4-9.4,11.4c-0.9,2.3-0.9,5-1.8,7.5
		c-1.1,3.9-2.1,8-3.9,11.7c-1.8,4.6-4.6,8.9-6.2,13.3c-1.4,4.3-4.8,7.3-6.6,11.4c-0.5,1.4-0.9,3-1.4,4.3c-1.1,3.2-2.3,6.2-3.2,9.2
		c-0.2,0.9-0.2,2.1-0.2,2.7c-0.5,5.5-3.9,10.1-5.9,14.9c-1.1,2.3-2.5,4.3-4.3,6.2c-0.9,0.9-2.1,1.4-3.2,2.1c-2.5,0.9-3.9,3-5.5,4.6
		c-0.5,0.7-1.8,1.1-2.7,0.9c-3.7-0.9-7.3-2.1-11-3.4c-5-1.6-7.5-5.5-8.5-10.5c-2.1-10.1,0.2-19.2,5.7-27.5c2.7-4.1,6.6-7.5,10.5-11
		c2.7-2.3,5.3-5,8-7.8c3.2-3.2,6.6-6.4,10.1-9.4c2.3-1.8,2.5-4.6,3-7.1c0.9-5,1.4-10.1,1.8-15.1c0.7-5.5,0.9-11,1.4-16.5
		c0.2-2.5,0.5-5.3,0.7-7.8c0-0.5-0.2-0.9-0.2-2.1c-0.9,1.4-1.6,2.5-2.3,3.4c-3.2,4.3-6.2,8.2-9.4,12.4c-2.1,2.5-3.9,5-5.5,7.5
		c-1.8,2.3-3.4,4.8-5,7.3c-1.8,3.2-5,4.8-8,6.2c-0.7,0.2-1.4,0.9-1.6,1.6c-1.4,2.7-2.7,3.4-5.7,2.7c-2.3-0.7-4.3-2.1-6.9-3.2
		c-1.1-0.7-2.3-2.1-3.4-3c-2.1-2.1-2.5-4.8-3-7.8c-0.7-4.3,0.9-8.5,1.1-12.8c0.2-1.4,0-2.7,0-3.9c0-2.1-0.2-4.1-0.2-6.2
		c0-1.4,0.2-3.2,0.5-4.6c0-3.2,0.5-6.2,0-9.2c-0.2-1.4,0.5-1.4,0.7-2.1c0-2.1,0.2-3.9,0.2-5.7c0.2-2.7,0.7-5.3,0.9-8
		c0.5-3.4,0.9-7.1,1.6-10.5c0.2-1.6,0.5-3.2,0.9-5.3c0-0.2,0.2-0.9,0.2-1.1c-0.5-5.7,1.4-11.4,0.7-16.9c0-0.9-0.2-1.8-0.5-2.7
		c-2.1,0.7-4.1,1.6-6.4,2.1c-1.6,0.2-3.4-0.2-5-0.7c0.9-1.4,1.4-3.2,2.5-4.1c2.3-2.3,5-4.6,8-5.5c3.9-1.4,7.5-0.7,11,1.4
		c2.7,1.6,4.1,4.3,5.9,6.6c3,3.7,6.4,20.1,7.5,23.8c0.5,2.3,0.9,4.6,1.1,6.9c0.2,1.8-2.2,40.9-2.7,44.5c0.7-0.7,4.1-2,4.3-2.4
		c3.4-4.1,6.9-8.2,10.3-12.4c3-3.9,6.2-7.8,8.5-12.1c1.4-2.3,2.1-5.5,2.7-8.5c0.9-4.6,3.9-8.2,7.3-11.2c2.1-1.8,6.4-1.1,7.5,1.1
		c0.9,1.4,0.5,3.2,0.5,5c-0.2,3.2-0.7,6.6-0.9,9.8c0,2.7,0.5,5.5,0.2,8.5c0,5,1.2,13.3,2.6,18.2c0.9,2.1,1.9,9.5,2.4,12.3
		C501.9,400.6,508.8,394.4,514.8,389.4z M463.3,444c-5.3,5.5-10.5,11.2-16,16.2c-3.4,3.2-4.8,6.9-6.2,11c-0.7,2.7-2.1,5-3,7.5
		c-0.7,2.1-1.4,3.9-1.4,5.9c0.2,6.2,1.4,8,7.5,9.6c1.1,0.2,2.1,0.7,3.2,1.1c1.1,0.5,2.1,0.2,2.7-0.9c2.5-4.1,5.5-8.2,7.3-12.8
		c1.8-4.8,2.7-9.8,3.9-15.1c1.6-8,3.2-16.2,4.6-24.5c0-0.5-0.2-0.9-0.5-1.8C464.7,442.2,464,443.4,463.3,444z"/>
	<path d="M510.2,400.6c0-0.9,0.2-1.6,0.2-2.7c0.2-0.5,0.5-0.9,0.7-1.4c0.2-2.3,1.1-4.3,2.1-6.2c0.9-2.1,1.8-4.1,3-6.2
		c0.7-1.1,1.4-2.3,2.1-3.4c0.5-0.7,0.9-1.4,1.4-1.8c0.7-0.7,1.1-1.4,1.8-2.1c1.4-1.4,2.7-3,4.1-4.1c0.9-0.9,2.3-1.4,3.4-2.1
		c0.2-0.2,0.7-0.2,0.9-0.7c1.1-1.4,2.7-1.6,4.1-2.1c0.9-0.2,2.1-0.9,3.7-0.2c0.9,0.2,2.1,0.2,3.2,0.9c1.1,0.9,2.1,1.6,2.5,3
		c0.2,0.9,0.5,1.4,0.9,2.1c0.5,0.9,0.9,1.8,1.4,2.7c0,0.2,0.2,0.5,0.2,0.7c-0.2,1.1-0.2,2.3-0.7,3.4c0,0.7-0.2,1.4-0.5,2.1
		c0,0.2-0.2,0.5-0.5,0.9c-0.2,0.7-0.9,1.4-1.1,2.1c-0.7,1.1-1.1,2.1-1.8,3.2c0,0.2-0.2,0.2-0.5,0.5c-0.7,0.2-1.4,0.7-1.6,1.1
		c-1.4,2.3-3.2,4.3-5.5,5.9c-1.8,1.4-3.9,2.7-5.5,4.3c-1.4,1.1-3.2,2.1-4.6,3c-0.9,0.2-1.4,1.4-1.4,2.3c-0.7,2.1-1.1,4.3-1.6,6.4
		c-0.2,1.6-0.5,3.4-1.4,5c0,0.2,0.2,0.5,0.2,0.7c1.4,1.8,3,3.2,5.5,3.4c1.8,0.2,3.7-0.2,5.3-0.5c1.8-0.2,3.4-1.1,5-2.3
		c1.8-1.4,3.9-2.3,5.5-3.9c2.7-2.1,5-4.1,6.9-6.9c1.4-2.1,3-3.9,4.3-5.9c2.1-3.4,4.3-7.1,6.4-10.8c0.7-1.1,1.4-2.3,2.1-3.2
		c0.2-0.2,0.7-0.2,0.9-0.2c0.9,0.2,0.9,1.8,0.7,2.7c-0.5,1.8-2.1,2.3-3,3.7c-0.7,0.7-0.9,1.4-0.9,2.1c-0.2,0.7-0.2,1.1-0.7,1.8
		c-0.2,0.9-0.7,1.6-0.9,2.5c-0.2,0.2-0.5,0.9-0.9,0.9c-0.9,1.1-2.1,2.1-2.5,3.7c-0.2,0.7-0.9,1.1-1.1,1.8c-1.1,2.1-2.3,3.9-4.1,5.5
		c-0.9,0.9-1.4,1.8-1.8,2.7c-1.1,2.1-2.3,3.7-4.1,4.8c-0.9,0.7-2.1,1.1-3.2,1.8c-0.9,0.5-1.4,1.1-2.3,1.4c-0.9,0.5-2.1,0.7-3,0.9
		c-0.7,0.2-1.4,0.2-1.8,0.2c-0.9,0.2-2.1,0.2-3,0.2c-3,0.2-5.7-0.2-8.5-1.4c-2.5-1.1-4.3-3.2-6.2-5.3c-0.9-0.9-1.4-2.1-2.1-3.2
		c-1.4-2.7-2.5-5.7-2.3-8.9c0,0-0.2,0-0.2-0.2C509.7,404.2,510,402.4,510.2,400.6z M538.3,378.4c-1.1,0.7-2.1,1.4-3.2,2.1
		c-0.5,0.2-0.9,0.5-1.1,0.9c-1.1,1.6-2.1,3.2-3.2,4.8c-0.2,0.7-0.5,1.1-0.9,1.6c-0.5,0.9-1.1,1.8-1.6,2.7c-0.5,1.1-0.9,2.3-1.1,3.4
		c-0.9,2.1-1.4,3.9-2.1,5.7c0.2,0,0.2-0.2,0.7-0.2c1.6-1.1,3.4-2.1,5-3.4c2.1-1.8,4.3-3.9,6.2-5.9c2.3-2.5,3.4-5.5,4.3-8.9
		c0.2-0.9,0.2-1.6,0.5-2.7c-1.1,0.2-1.8,0-2.3-0.9C539,377.9,538.6,378.2,538.3,378.4z"/>
	<path d="M555,400.6c0-0.9,0.2-1.6,0.2-2.7c0.2-0.5,0.5-0.9,0.7-1.4c0.2-2.3,1.1-4.3,2.1-6.2c0.9-2.1,1.8-4.1,3-6.2
		c0.7-1.1,1.4-2.3,2.1-3.4c0.5-0.7,0.9-1.4,1.4-1.8c0.7-0.7,1.1-1.4,1.8-2.1c1.4-1.4,2.7-3,4.1-4.1c0.9-0.9,2.3-1.4,3.4-2.1
		c0.2-0.2,0.7-0.2,0.9-0.7c1.1-1.4,2.7-1.6,4.1-2.1c0.9-0.2,2.1-0.9,3.7-0.2c0.9,0.2,2.1,0.2,3.2,0.9c1.1,0.9,2.1,1.6,2.5,3
		c0.2,0.9,0.5,1.4,0.9,2.1c0.5,0.9,0.9,1.8,1.4,2.7c0,0.2,0.2,0.5,0.2,0.7c-0.2,1.1-0.2,2.3-0.7,3.4c0,0.7-0.2,1.4-0.5,2.1
		c0,0.2-0.2,0.5-0.5,0.9c-0.2,0.7-0.9,1.4-1.1,2.1c-0.7,1.1-1.1,2.1-1.8,3.2c0,0.2-0.2,0.2-0.5,0.5c-0.7,0.2-1.4,0.7-1.6,1.1
		c-1.4,2.3-3.2,4.3-5.5,5.9c-1.8,1.4-3.9,2.7-5.5,4.3c-1.4,1.1-3.2,2.1-4.6,3c-0.9,0.2-1.4,1.4-1.4,2.3c-0.7,2.1-1.1,4.3-1.6,6.4
		c-0.2,1.6-0.5,3.4-1.4,5c0,0.2,0.2,0.5,0.2,0.7c1.4,1.8,3,3.2,5.5,3.4c1.8,0.2,3.7-0.2,5.3-0.5c1.8-0.2,3.4-1.1,5-2.3
		c1.8-1.4,3.9-2.3,5.5-3.9c2.7-2.1,5-4.1,6.9-6.9c1.4-2.1,3-3.9,4.3-5.9c2.1-3.4,4.3-7.1,6.4-10.8c0.7-1.1,1.4-2.3,2.1-3.2
		c0.2-0.2,0.7-0.2,0.9-0.2c0.9,0.2,0.9,1.8,0.7,2.7c-0.5,1.8-2.1,2.3-3,3.7c-0.7,0.7-0.9,1.4-0.9,2.1c-0.2,0.7-0.2,1.1-0.7,1.8
		c-0.2,0.9-0.7,1.6-0.9,2.5c-0.2,0.2-0.5,0.9-0.9,0.9c-0.9,1.1-2.1,2.1-2.5,3.7c-0.2,0.7-0.9,1.1-1.1,1.8c-1.1,2.1-2.3,3.9-4.1,5.5
		c-0.9,0.9-1.4,1.8-1.8,2.7c-1.1,2.1-2.3,3.7-4.1,4.8c-0.9,0.7-2.1,1.1-3.2,1.8c-0.9,0.5-1.4,1.1-2.3,1.4c-0.9,0.5-2.1,0.7-3,0.9
		c-0.7,0.2-1.4,0.2-1.8,0.2c-0.9,0.2-2.1,0.2-3,0.2c-3,0.2-5.7-0.2-8.5-1.4c-2.5-1.1-4.3-3.2-6.2-5.3c-0.9-0.9-1.4-2.1-2.1-3.2
		c-1.4-2.7-2.5-5.7-2.3-8.9c0,0-0.2,0-0.2-0.2C554.3,404.2,554.8,402.4,555,400.6z M583.2,378.4c-1.1,0.7-2.1,1.4-3.2,2.1
		c-0.5,0.2-0.9,0.5-1.1,0.9c-1.1,1.6-2.1,3.2-3.2,4.8c-0.2,0.7-0.5,1.1-0.9,1.6c-0.5,0.9-1.1,1.8-1.6,2.7c-0.5,1.1-0.9,2.3-1.1,3.4
		c-0.9,2.1-1.4,3.9-2.1,5.7c0.2,0,0.2-0.2,0.7-0.2c1.6-1.1,3.4-2.1,5-3.4c2.1-1.8,4.3-3.9,6.2-5.9c2.3-2.5,3.4-5.5,4.3-8.9
		c0.2-0.9,0.2-1.6,0.5-2.7c-1.1,0.2-1.8,0-2.3-0.9C583.9,377.9,583.4,378.2,583.2,378.4z"/>
</g>
<text transform="matrix(1 0 0 1 601.3305 425.164)" display="none" enable-background="new    " font-family="'Bakery'" font-size="164.7252">&gt;</text>
</svg>
