<?xml version="1.0" encoding="utf-8"?>
<!-- Generator: Adobe Illustrator 18.1.1, SVG Export Plug-In . SVG Version: 6.00 Build 0)  -->
<svg version="1.1" id="Layer_1" xmlns="http://www.w3.org/2000/svg" xmlns:xlink="http://www.w3.org/1999/xlink" x="0px" y="0px"
	 viewBox="0 0 267.5 98.2" enable-background="new 0 0 267.5 98.2" xml:space="preserve">
<g>
	<path fill="#FFFFFF" d="M51.1,46.7c-0.8,2.7-1.8,5.5-2.8,8.3c-0.6,1.4-1.4,2.7-2,4c-0.1,0.3-0.4,0.6-0.6,0.8
		c-1.7,1.1-3.2,2.4-5.4,2.2c-1.6-0.1-3.2-0.2-4.7-1c-0.9-0.6-1.7-1.1-2.3-2c-0.1-0.3-0.6-0.4-0.9-0.6C32.3,58.1,32,58,32,57.7
		c-0.5-1.4-0.9-2.9-1.4-4.4c-0.7-2-1.4-4.1-2.1-6.2c-0.3-0.9-0.9-1.7-0.9-2.7c0.1-0.4-0.4-0.6-0.9-0.4c-1.4,0.5-2.7,1-4.1,1.4
		c-1.6,0.4-3.1,0.9-4.7,1.2c-2,0.4-2.4,0.7-2.4,2.8c0,1.4,0.3,2.7,0.1,4.1c-0.1,1.8-0.6,3.5-0.9,5.3c-0.2,1.2-0.6,2.5-0.6,3.8
		c-0.1,1.9-0.5,3.6-1.4,5.3c-0.6,1.1-0.9,2.3-1.4,3.5c-0.4,0.9-1.1,1.7-2.2,1.7c-1.3-0.1-2.2-0.9-2.7-2.2C6,69.6,6,68.2,6.2,66.7
		c0-0.3-0.1-0.6,0-0.8c0.1-0.5-0.1-1.2,0.6-1.4c0.7-0.1,1.9,0.4,1.9,1.1c0.1,1.2,0.1,2.4,0.2,3.5c0,0.3,0,0.6,0.1,0.9
		c2.3-7.3,3.4-15,4.6-22.6c-3.5,0.4-6.6,0.1-9.5-1.7c-0.2-0.1-0.4-0.2-0.6-0.4c-1.1-0.9-2.2-1.9-3.2-2.9C0.2,42.3,0.1,42.1,0,42
		c0.2-0.1,0.4-0.4,0.6-0.4c1.7-0.1,3.5-0.2,5,0.7c0.9,0.5,1.7,1.1,2.6,1.5c0.5,0.2,1.2,0.4,1.7,0.4c1.2,0,2.4-0.1,3.6-0.1
		c0.8,0,1.1-0.3,1.2-0.9c0.6-2.8,1.4-5.5,1.7-8.4c0.2-1.7,0.6-3.2,1.2-4.7c0.6-1.6,1.2-3,1.4-4.7c0.2-1.2,0.5-2.5,0.7-3.7
		c0.2-0.9,0.4-1.7,1.3-2.4c1.4-0.9,2.8-1.7,4.6-1.5c0.4,0,0.9-0.1,1.4-0.3c1.7-0.6,3.2-0.4,4.5,0.6c1.3,0.9,1.7,2.3,1.8,3.9
		c0.1,1.2,0.1,2.5,0.4,3.7c0.6,3.1,1.4,6.3,2.1,9.4c0.1,0.4,0.2,0.8,0.3,1.2c0.1,0.5,0.4,0.5,0.8,0.4c1.3-0.5,2.6-1,3.9-1.5
		c1-0.4,3.1,0.4,3.5,1.3c0.3,0.8,0,1.2-0.9,1.2c-0.4,0-0.9-0.1-1.4-0.3c-0.6-0.4-1.2-0.2-1.8,0.1c-0.9,0.5-1.7,1-2.6,1.4
		c-0.6,0.2-0.6,0.6-0.5,1.1c0.5,2.1,0.9,4.1,1.4,6.2c0.1,0.8,0.2,1.5-0.4,2.1c-0.8,0.7,0,1.4-0.1,2.2c-0.1,1.1,0,2.2,0.1,3.3
		c0,0.3,0.1,0.6,0,0.9c0,0.6,0,1.1-0.1,1.6c-0.1,0.5-0.1,0.8,0.2,1.2c1,1.1,2.1,2,3.6,2.2c0.4,0.1,0.9,0,1.2-0.2
		c1.4-1,2.7-2,3.2-3.7c0.6-2.2,1.7-4.1,2.5-6.2c0.6-1.4,1.1-3,1.6-4.4c0.1-0.2,0.1-0.4,0.2-0.7C51.7,45,51.3,46,51.1,46.7z
		 M26.8,41.5c-1.7-6-2.8-12-5-17.9c-0.3,0.7-0.6,1.1-0.7,1.5c-0.4,1.4-0.9,2.8-1.3,4.2c-0.6,2.1-1.3,4.1-1.7,6.2
		c-0.3,1.2,0,2.6-0.1,3.9c-0.1,1.4-0.4,3-0.6,4.5C20.8,44.1,23.7,42.5,26.8,41.5z"/>
	<path fill="#FFFFFF" d="M58,58.2c1.9-2.7,3.7-4.8,5.3-7.7c0.2-0.5,0.8-1.6,1-2.1c0.2-0.4,0.2-0.7,0.4-1.1c0.3-0.6,0.5-1.2,0.8-1.7
		c0.1-0.1,0.4-0.1,0.5-0.1c0.8,0.2,0.3,0.1,0,0.8c-0.1,0.4-0.1,0.9-0.3,1.4c-0.2,0.5-0.4,1-0.6,1.4c-0.9,1.6-1.9,3.2-2.9,4.7
		c-0.9,1.4-1.6,3-2.5,4.3C59,59,58.4,60,57.6,60.9c-0.9,0.9-1.9,1.5-3.3,1.2c-0.4-0.1-0.9-0.3-1.4-0.4c-1.4-0.4-2.2-1.6-3-2.7
		C49.2,57.7,49,56.3,49,55c0.1-2,0.1-4.1,0.1-6.1c0.1-1.7,0.1-3.3,0.3-4.9c0-1,0.2-1.9,0.3-2.9c0.1-1.1,0.4-7.6,0.5-8.6
		c0.1-1.2,0.2-2.3,0.3-3.5c0.1-1,0.1-2,0.2-3c0.1-1.2,0.4-2.4,0.6-3.7c0.1-0.6,0.5-1.1,1.2-1.2c1-0.1,1.9,0.1,3,0.5
		c0.7,0.2,1.2,0.7,1.7,1c0.7,0.4,1.2,1.2,1.4,2c0.4,0.9,0.2,1.7,0.1,2.5c0,1-0.1,2-0.1,3c-0.1,1.2-0.3,2.4-0.4,3.5
		c-0.1,0.6-0.4,6.6-0.4,7.3c0,0.6-0.1,1.3-0.2,2c-0.1,0.9,0,1.7-0.2,2.6c-0.3,1.3,0,2.7-0.1,4c-0.1,1.1-0.2,2.2-0.3,3.2
		c-0.1,0.4,0.1,0.9,0.1,1.3c0,1.6-0.1,3.2-0.1,4.8c0,0.1,0,0.2,0,0.3c0.1,0,0.1,0.1,0.1,0.1C57.5,58.8,57.7,58.5,58,58.2z"/>
	<path fill="#FFFFFF" d="M73.6,58.2c1.9-2.7,3.7-4.8,5.3-7.7c0.2-0.5,0.8-1.6,1-2.1c0.2-0.4,0.2-0.7,0.4-1.1
		c0.3-0.6,0.5-1.2,0.8-1.7c0.1-0.1,0.4-0.1,0.5-0.1c0.8,0.2,0.3,0.1,0,0.8c-0.1,0.4-0.1,0.9-0.3,1.4c-0.2,0.5-0.4,1-0.6,1.4
		c-0.9,1.6-1.9,3.2-2.9,4.7c-0.9,1.4-1.6,3-2.5,4.3c-0.7,0.9-1.3,1.9-2.1,2.8c-0.9,0.9-1.9,1.5-3.3,1.2c-0.4-0.1-0.9-0.3-1.4-0.4
		c-1.4-0.4-2.2-1.6-3-2.7c-0.7-1.2-0.9-2.6-0.9-3.9c0.1-2,0.1-4.1,0.1-6.1c0.1-1.7,0.1-3.3,0.3-4.9c0-1,0.2-1.9,0.3-2.9
		c0.1-1.1,0.4-7.6,0.5-8.6c0.1-1.2,0.2-2.3,0.3-3.5c0.1-1,0.1-2,0.2-3c0.1-1.2,0.4-2.4,0.6-3.7c0.1-0.6,0.5-1.1,1.2-1.2
		c1-0.1,1.9,0.1,3,0.5c0.7,0.2,1.2,0.7,1.7,1c0.7,0.4,1.2,1.2,1.4,2c0.4,0.9,0.2,1.7,0.1,2.5c0,1-0.1,2-0.1,3
		c-0.1,1.2-0.3,2.4-0.4,3.5c-0.1,0.6-0.4,6.6-0.4,7.3c0,0.6-0.1,1.3-0.2,2c-0.1,0.9,0,1.7-0.2,2.6c-0.3,1.3,0,2.7-0.1,4
		c-0.1,1.1-0.2,2.2-0.3,3.2c-0.1,0.4,0.1,0.9,0.1,1.3c0,1.6-0.1,3.2-0.1,4.8c0,0.1,0,0.2,0,0.3c0.1,0,0.1,0.1,0.1,0.1
		C73.1,58.8,73.3,58.5,73.6,58.2z"/>
	<path fill="#FFFFFF" d="M95.9,49.4c-0.7,1.5-1.4,3.1-2.3,4.8c-0.3,0.5-0.5,1.2-0.8,1.7c-0.9,1.4-1.9,2.9-3.2,3.9
		c-0.4,0.3-0.9,1.1-1.3,1.3c-0.7,0.1-1.5,0.4-2.2,0.5c-0.9,0.1-1.7,0.1-2.7-0.2c-1.4-0.6-2.2-1.8-2.7-3.2c-0.2-0.7-0.3-1.5-0.5-2.3
		c-0.5-1.6-0.2-3.1-0.4-4.6c-0.1-1.7,0.1-3.2,0.3-4.9c0.1-0.9,0.1-1.9,0.3-2.8c0.1-0.7,0.2-1.4,0.4-2.2c0.1-0.3,0.1-0.6,0.1-0.9
		c0.3-1.3,1-1.9,2.3-1.9c0.8,0,1.6,0.4,2.4,0.7c1.2,0.4,1.7,1.5,2.3,2.4c0.3,0.5,0.2,1.2,0.3,1.7c0.1,0.3,0.1,0.6,0.2,0.9
		c0.1,0.5,0.1,1,0.1,1.5c0,1.2-0.1,2.3-0.1,3.5c0,0.7-0.1,1.5-0.1,2.2c0,0.3,0,0.5,0,0.8c-0.4,1.8-0.6,3.7-0.7,5.6
		c0,0.3,0.1,0.6-0.1,0.8s-0.4,0.6-0.7,0.6c-0.6,0.1-0.6,0.5-0.8,1c0.4-0.1,0.8-0.4,1.2-0.4c1.2-0.2,1.9-1.2,2.7-1.9
		c2.4-2.4,3.9-5.5,5.5-8.5c0.1-0.4,0.2-0.7,0.4-1.2c0.4,0.1,0.3-0.1,0.6,0.2S96.1,48.9,95.9,49.4z M81.1,32.8c0-0.7,0.5-1,1.2-1.2
		c0.9-0.2,1.9-0.6,2.9-0.7c0.8-0.1,1.7,0.3,2.5,0.4c0.8,0.2,0.9,0.9,0.9,1.5c0.1,0.4-0.1,1.1-0.4,1.4c-0.7,0.6-1.6,1.2-2.7,1.2
		c-1-0.2-2-0.4-3-0.6C81.8,34.6,81.1,33.5,81.1,32.8z M88.3,61.1"/>
	<path fill="#FFFFFF" d="M120.3,50.4c-0.7,1.3-1.4,2.6-2.3,4c-0.3,0.4-0.4,0.9-0.8,1.4c-0.9,1.2-1.8,2.3-3.2,3.2
		c-0.4,0.3-0.9,0.9-1.3,1.1c-0.7,0.1-1.4,0.3-2.2,0.4c-0.6,0.1-1.2,0.1-1.8,0c-0.4,0.1-0.6,0.4-1,0.6c-0.3,0.1-0.6,0.2-1,0.3
		c-0.2,0.1-3.8,0.7-4.5,0.8c-0.4,0.1-0.8,0.3-1.2-0.1c-0.1,0-0.1,0-0.1,0c-0.9,0.3-1.7-0.4-2.4-0.7c-0.1-0.1-0.3-0.2-0.4-0.2
		c-0.5-0.1-0.7-0.4-0.9-0.8c-0.1-0.3,0.4-1,0.7-0.7c0.7,0.5,1.4,0.9,2.3,1c0.2,0.1,0.5,0.1,0.8,0.2c1,0.1,1.7-0.4,2.2-1
		c0.1-0.1,0.2-0.3,0.4-0.3c1.4-0.6,2.1-1.7,2.7-2.9c0.3-0.6,0.6-1.2,0.6-1.9c0-1.4,0-2.7-0.6-4.2c-0.4-0.9-1-1.9-1.7-2.7
		c-0.5-0.6-1.3-1.2-1.9-1.9c-0.7-0.9-1.7-1.6-2.5-2.4c-0.1,0-1.2-1.1-1.2-1.1c-1.1-1.2-1.7-2.1-2.2-3.5c-0.4-1.2-0.4-2.2,0-3.2
		c0.2-0.4,0.6-0.8,1-1.2c0.3-0.3,0.7-0.5,1-0.8c0.6-0.6,1.4-0.9,2.3-1c0.9-0.1,1.9,0.2,2.8,0.9c0.4,0.4,1.2,1.9,0.4,1.9
		c-0.1,0-0.4,0.3-0.4,0.5c-0.2,0.6-0.4,1.3-0.6,1.9c-0.1,0.4-0.5,0.6-0.7,0.9c-0.6,0.9-0.4,1.3,0.6,2.3c1.1,1.2,2.4,2.1,3.8,3.1
		c1.2,0.8,2.3,1.7,3.3,2.7c0.6,0.6,1.1,1.2,1.6,1.7c0.4,0.5,0.9,0.9,1.3,1.4c0.8,0.8,0.9,1.7,1.1,2.5c0.1,0.4,0.3,0.8,0.3,1.2
		c0.1,2.7-2.2,4.2-3,5c-0.1,0.1-0.3,0.3-0.4,0.4c0.2-0.1,0.4-0.1,0.6-0.2c1.2-0.2,1.9-0.9,2.7-1.6c2.4-2,4-4.5,5.5-7.1
		c0.1-0.2,0.2-0.5,0.4-0.9c0.4,0.1,0.3-0.1,0.6,0.2C121,49.9,120.5,50,120.3,50.4z M112.7,60"/>
	<path fill="#FFFFFF" d="M138.9,51c0.6-0.9,1.7-2.2,2.3-3.2c1-1.6,1.8-2.3,2.5-4c0.4-1.1,0.9-2.1,1.4-3.2c0.1,0.5,0.4,0.4,0.2,0.9
		c-2,8.2-7.8,12-8.8,12.2c-0.3,0-0.4,0.1-0.5,0.4c-0.1,0.6-0.4,1.1-0.6,1.5c-0.5,0.9-0.7,1.9-0.7,3c0,0.9-0.5,1.7-1.4,2.2
		c-0.9,0.5-1.9,0.6-2.9,0.4c-0.6,0-1.2-0.2-1.9-0.4c-0.7-0.2-1.4-0.4-2.2-0.7c-0.6-0.3-1.1-0.6-1.7-0.9c-1.4-0.6-2.4-1.7-3.5-2.5
		c-1.1-0.9-1.9-2-2.2-3.3c-0.2-0.7-0.2-1.4-0.4-2.1c-0.4-1.4-0.1-2.7,0.1-4c0.3-1.1,0.9-2.2,1.4-3.2c0.6-1.1,1.2-2.1,1.9-3.1
		c0.6-0.8,1.4-1.6,2.5-1.9c0.4-0.1,0.6-0.4,0.9-0.6c0.7-0.6,1.6-0.5,2.4-0.4c0.9,0.1,1.3,0.6,1.7,1.2c0.3,0.5,0.6,1,0.9,1.6
		c0.2,0.3,0.4,0.2,0.6,0.1c0.4-0.1,0.9-0.4,1.2-0.3c0.6,0.2,1.2,0.3,1.7,0.9c0.4,0.4,0.7,0.6,1,1c0.9,1.2,1.2,2.4,1.1,3.8
		c0,0.4,0.1,0.6,0.1,1c0.1,0.6,0.1,1.4,0.2,2c0,0.8,0,1.5,0,2.4C137.4,51.3,138.3,51.7,138.9,51z M128.4,46.2
		c-0.4,0.6-0.9,1.1-1.1,1.7c-0.5,1.2-0.8,2.3-0.7,3.6c0,0.4,0,0.9,0.1,1.3c0.2,0.6,0.2,1.2,0.2,1.9c0,0.5,0.1,1.1,0.4,1.4
		c0.6,0.9,1.7,1.1,2.7,1.2c0.6,0.1,1.1-0.4,1.5-0.7c1.2-0.9,2.3-1.9,2.6-3.6c-2.9-1.4-4.8-3.6-5.5-6.8
		C128.6,46.2,128.5,46.2,128.4,46.2z M134.6,51c0.1-0.9,0.1-1.7,0.1-2.5c0.1-1-0.3-1.9-0.4-3c-0.1-1.4-1.8-2.7-2.9-3
		c-0.1-0.1-0.4,0-0.4,0.1c-0.1,0.4-0.4,0.9-0.4,1.3c0.2,0.9,0.6,1.7,1.3,2.5c0.1,0.1,0.3,0.4,0.4,0.6c0.2,0.3,0.4,0.6,0.5,0.9
		c0.4,0.6,0.7,1.3,1,1.9c0.2,0.4,0.4,0.7,0.5,1.1C134.5,51,134.6,51,134.6,51z"/>
	<path fill="#FFFFFF" d="M154,40.1c1.3-1.2,2.7-1.7,4.5-1.4c1.5,0.3,2.7,1.1,3.7,2.3c0.9,0.9,1.4,2,1.9,3.2c0.3,0.9,0.2,1.6-0.1,2.4
		c-0.1,0.4-0.1,0.9-0.3,1.4c-0.2,0.7-0.4,1.4-0.7,2c0,0.1-0.1,0.2-0.1,0.4c-0.3,1.7-0.6,3.4-0.9,5.1c0,0.2,0,0.4,0,0.6
		c0,0.6,0,1.6,0,2.4c0.4-0.3,1.9-0.7,2.3-1c1.4-1.1,2.8-2.2,3.4-3.8c0.6-1.3,1.9-3.7,2.4-5c0.1-0.4,0.1-0.7,0.2-1.2
		c0.3-0.8,1.3-1.5,1.4-1.2c0.1,0.4-0.1,1-0.1,1.4c-0.3,1.1-0.6,2.2-1.4,3.6c-0.6,1.1-1,1.8-1.4,2.7c-0.3,0.6-0.8,1.1-1.1,1.7
		c-0.5,1.2-1.4,2-2.5,2.7c-0.5,0.4-1,0.6-1.6,0.9c-0.3,0.1-0.6,0.2-1,0.4c-0.4,0.1-0.9,0.2-1.4,0.4c-0.9,0.4-1.6,0.1-2.4-0.2
		c-1.1-0.4-1.9-1.2-2.8-1.9c-1.7-1.4-1.8-3.3-2-5.3c0-0.8,0.3-1.5,0.4-2.3c0-0.8,0.3-1.6,0.5-2.3c0.4-1.4,0.9-2.8,1.4-4.2
		c0.3-0.7,0.7-1.4,1-2.1c0.1-0.4,0.1-0.9,0.2-1.3c0.1-0.4-0.1-0.5-0.4-0.4c-0.6,0.1-1.2,0.1-1.8,0.4c-0.4,0.1-0.7,0.5-1,0.9
		c-0.6,0.6-1.2,1.4-1.5,2.2c-0.4,0.9-0.8,1.9-1,2.9c-0.3,1-0.4,2-0.6,3.1c-0.1,0.6,0,1.4,0.1,2.1c0,0.6,0.1,1.2,0.1,1.8
		c0.1,0.6,0.1,1.3,0.1,1.9c0,0.5,0.1,1-0.1,1.5c-0.2,0.5-0.1,1.2-0.1,1.7c-0.1,0.7-0.2,1.5-0.4,2.2c-0.1,0.6-0.9,1.2-1.8,0.9
		c-0.8-0.1-1.7-0.4-2.4-0.7c-0.9-0.4-1.8-0.6-2.7-0.9c-0.6-0.1-0.6-0.5-0.6-1c0.1-0.7,0.1-1.4,0.1-2.2c0-0.9-0.1-1.8-0.3-2.7
		c-0.1-1.3,0-2.6,0.1-4c0-0.4-0.1-0.9-0.1-1.4c0-0.6,0.1-1.2,0.1-1.8c0.1-1.1,0.1-2.2,0.1-3.2c0.1-0.4-0.1-0.8-0.1-1.2
		c0.1-1.2,0.2-2.3,0.3-3.5c0-0.6,0.1-1.3,0-1.9c-0.2-1,0.5-1.2,1.2-1.6c0.9-0.5,1.8-0.1,2.7,0.1c1,0.2,1.7,1,2.6,1.7
		c0.7,0.5,1.2,1.2,1.7,1.9c0.2,0.4,0.4,0.7,0.4,1.2c0.1,0.6,0,1.2,0,1.7C152.6,41.5,153.3,40.8,154,40.1z"/>
	<path fill="#FFFFFF" d="M225,46.2c-0.1,0.6-0.1,1.2-0.4,1.5c-0.9,1.5-1.9,2.8-3.2,4c-1.7,1.4-3.3,2.8-4.1,5c-0.4,1-0.4,2.2-0.8,3.3
		c-0.5,1.7-0.9,3.5-1.7,5.1c-0.8,2-2,3.9-2.7,5.8c-0.6,1.9-2.1,3.2-2.9,5c-0.2,0.6-0.4,1.3-0.6,1.9c-0.5,1.4-1,2.7-1.4,4
		c-0.1,0.4-0.1,0.9-0.1,1.2c-0.2,2.4-1.7,4.4-2.6,6.5c-0.5,1-1.1,1.9-1.9,2.7c-0.4,0.4-0.9,0.6-1.4,0.9c-1.1,0.4-1.7,1.3-2.4,2
		c-0.2,0.3-0.8,0.5-1.2,0.4c-1.6-0.4-3.2-0.9-4.8-1.5c-2.2-0.7-3.3-2.4-3.7-4.6c-0.9-4.4,0.1-8.4,2.5-12c1.2-1.8,2.9-3.3,4.6-4.8
		c1.2-1,2.3-2.2,3.5-3.4c1.4-1.4,2.9-2.8,4.4-4.1c1-0.8,1.1-2,1.3-3.1c0.4-2.2,0.6-4.4,0.8-6.6c0.3-2.4,0.4-4.8,0.6-7.2
		c0.1-1.1,0.2-2.3,0.3-3.4c0-0.2-0.1-0.4-0.1-0.9c-0.4,0.6-0.7,1.1-1,1.5c-1.4,1.9-2.7,3.6-4.1,5.4c-0.9,1.1-1.7,2.2-2.4,3.3
		c-0.8,1-1.5,2.1-2.2,3.2c-0.8,1.4-2.2,2.1-3.5,2.7c-0.3,0.1-0.6,0.4-0.7,0.7c-0.6,1.2-1.2,1.5-2.5,1.2c-1-0.3-1.9-0.9-3-1.4
		c-0.5-0.3-1-0.9-1.5-1.3c-0.9-0.9-1.1-2.1-1.3-3.4c-0.3-1.9,0.4-3.7,0.5-5.6c0.1-0.6,0-1.2,0-1.7c0-0.9-0.1-1.8-0.1-2.7
		c0-0.6,0.1-1.4,0.2-2c0-1.4,0.2-2.7,0-4c-0.1-0.6,0.2-0.6,0.3-0.9c0-0.9,0.1-1.7,0.1-2.5c0.1-1.2,0.3-2.3,0.4-3.5
		c0.2-1.5,0.4-3.1,0.7-4.6c0.1-0.7,0.2-1.4,0.4-2.3c0-0.1,0.1-0.4,0.1-0.5c-0.2-2.5,0.6-5,0.3-7.4c0-0.4-0.1-0.8-0.2-1.2
		c-0.9,0.3-1.8,0.7-2.8,0.9c-0.7,0.1-1.5-0.1-2.2-0.3c0.4-0.6,0.6-1.4,1.1-1.8c1-1,2.2-2,3.5-2.4c1.7-0.6,3.3-0.3,4.8,0.6
		c1.2,0.7,1.8,1.9,2.6,2.9c1.3,1.6,1.6,3.5,2.1,5.5c0.3,1.7,0.7,3.3,1.2,4.9c0.2,1,0.4,2,0.5,3c0.1,0.8,0.5,1.4,0.6,2.2
		c0.2,0.9,0.2,1.7,0.3,2.6c0.1,1.9,0.4,3.8,0.4,5.6c0,1.4-0.3,2.8-0.5,4.2c-0.2,1.4-0.5,2.8-0.7,4.4c0.3-0.3,0.5-0.4,0.6-0.6
		c1.5-1.8,3-3.6,4.5-5.4c1.3-1.7,2.7-3.4,3.7-5.3c0.6-1,0.9-2.4,1.2-3.7c0.4-2,1.7-3.6,3.2-4.9c0.9-0.8,2.8-0.5,3.3,0.5
		c0.4,0.6,0.2,1.4,0.2,2.2c-0.1,1.4-0.3,2.9-0.4,4.3c0,1.2,0.2,2.4,0.1,3.7c0,2.2,0.9,4.4,1.5,6.5c0.4,0.9,0.5,1.9,0.8,3
		c0.1,0.9,0.4,1.9,0.6,3.1C220.1,50.4,222.4,48.4,225,46.2z M202.5,70.1c-2.3,2.4-4.6,4.9-7,7.1c-1.5,1.4-2.1,3-2.7,4.8
		c-0.3,1.2-0.9,2.2-1.3,3.3c-0.3,0.9-0.6,1.7-0.6,2.6c0.1,2.7,0.6,3.5,3.3,4.2c0.5,0.1,0.9,0.3,1.4,0.5s0.9,0.1,1.2-0.4
		c1.1-1.8,2.4-3.6,3.2-5.6c0.8-2.1,1.2-4.3,1.7-6.6c0.7-3.5,1.4-7.1,2-10.7c0-0.2-0.1-0.4-0.2-0.8C203.1,69.3,202.8,69.8,202.5,70.1
		z"/>
	<path fill="#FFFFFF" d="M223,51.1c0-0.4,0.1-0.7,0.1-1.2c0.1-0.2,0.2-0.4,0.3-0.6c0.1-1,0.5-1.9,0.9-2.7c0.4-0.9,0.8-1.8,1.3-2.7
		c0.3-0.5,0.6-1,0.9-1.5c0.2-0.3,0.4-0.6,0.6-0.8c0.3-0.3,0.5-0.6,0.8-0.9c0.6-0.6,1.2-1.3,1.8-1.8c0.4-0.4,1-0.6,1.5-0.9
		c0.1-0.1,0.3-0.1,0.4-0.3c0.5-0.6,1.2-0.7,1.8-0.9c0.4-0.1,0.9-0.4,1.6-0.1c0.4,0.1,0.9,0.1,1.4,0.4c0.5,0.4,0.9,0.7,1.1,1.3
		c0.1,0.4,0.2,0.6,0.4,0.9c0.2,0.4,0.4,0.8,0.6,1.2c0,0.1,0.1,0.2,0.1,0.3c-0.1,0.5-0.1,1-0.3,1.5c0,0.3-0.1,0.6-0.2,0.9
		c0,0.1-0.1,0.2-0.2,0.4c-0.1,0.3-0.4,0.6-0.5,0.9c-0.3,0.5-0.5,0.9-0.8,1.4c0,0.1-0.1,0.1-0.2,0.2c-0.3,0.1-0.6,0.3-0.7,0.5
		c-0.6,1-1.4,1.9-2.4,2.6c-0.8,0.6-1.7,1.2-2.4,1.9c-0.6,0.5-1.4,0.9-2,1.3c-0.4,0.1-0.6,0.6-0.6,1c-0.3,0.9-0.5,1.9-0.7,2.8
		c-0.1,0.7-0.2,1.5-0.6,2.2c0,0.1,0.1,0.2,0.1,0.3c0.6,0.8,1.3,1.4,2.4,1.5c0.8,0.1,1.6-0.1,2.3-0.2c0.8-0.1,1.5-0.5,2.2-1
		c0.8-0.6,1.7-1,2.4-1.7c1.2-0.9,2.2-1.8,3-3c0.6-0.9,1.3-1.7,1.9-2.6c0.9-1.5,1.9-3.1,2.8-4.7c0.3-0.5,0.6-1,0.9-1.4
		c0.1-0.1,0.3-0.1,0.4-0.1c0.4,0.1,0.4,0.8,0.3,1.2c-0.2,0.8-0.9,1-1.3,1.6c-0.3,0.3-0.4,0.6-0.4,0.9c-0.1,0.3-0.1,0.5-0.3,0.8
		c-0.1,0.4-0.3,0.7-0.4,1.1c-0.1,0.1-0.2,0.4-0.4,0.4c-0.4,0.5-0.9,0.9-1.1,1.6c-0.1,0.3-0.4,0.5-0.5,0.8c-0.5,0.9-1,1.7-1.8,2.4
		c-0.4,0.4-0.6,0.8-0.8,1.2c-0.5,0.9-1,1.6-1.8,2.1c-0.4,0.3-0.9,0.5-1.4,0.8c-0.4,0.2-0.6,0.5-1,0.6c-0.4,0.2-0.9,0.3-1.3,0.4
		c-0.3,0.1-0.6,0.1-0.8,0.1c-0.4,0.1-0.9,0.1-1.3,0.1c-1.3,0.1-2.5-0.1-3.7-0.6c-1.1-0.5-1.9-1.4-2.7-2.3c-0.4-0.4-0.6-0.9-0.9-1.4
		c-0.6-1.2-1.1-2.5-1-3.9c0,0-0.1,0-0.1-0.1C222.8,52.7,222.9,51.9,223,51.1z M235.3,41.4c-0.5,0.3-0.9,0.6-1.4,0.9
		c-0.2,0.1-0.4,0.2-0.5,0.4c-0.5,0.7-0.9,1.4-1.4,2.1c-0.1,0.3-0.2,0.5-0.4,0.7c-0.2,0.4-0.5,0.8-0.7,1.2c-0.2,0.5-0.4,1-0.5,1.5
		c-0.4,0.9-0.6,1.7-0.9,2.5c0.1,0,0.1-0.1,0.3-0.1c0.7-0.5,1.5-0.9,2.2-1.5c0.9-0.8,1.9-1.7,2.7-2.6c1-1.1,1.5-2.4,1.9-3.9
		c0.1-0.4,0.1-0.7,0.2-1.2c-0.5,0.1-0.8,0-1-0.4C235.6,41.2,235.4,41.3,235.3,41.4z"/>
	<path fill="#FFFFFF" d="M242.6,51.1c0-0.4,0.1-0.7,0.1-1.2c0.1-0.2,0.2-0.4,0.3-0.6c0.1-1,0.5-1.9,0.9-2.7c0.4-0.9,0.8-1.8,1.3-2.7
		c0.3-0.5,0.6-1,0.9-1.5c0.2-0.3,0.4-0.6,0.6-0.8c0.3-0.3,0.5-0.6,0.8-0.9c0.6-0.6,1.2-1.3,1.8-1.8c0.4-0.4,1-0.6,1.5-0.9
		c0.1-0.1,0.3-0.1,0.4-0.3c0.5-0.6,1.2-0.7,1.8-0.9c0.4-0.1,0.9-0.4,1.6-0.1c0.4,0.1,0.9,0.1,1.4,0.4c0.5,0.4,0.9,0.7,1.1,1.3
		c0.1,0.4,0.2,0.6,0.4,0.9c0.2,0.4,0.4,0.8,0.6,1.2c0,0.1,0.1,0.2,0.1,0.3c-0.1,0.5-0.1,1-0.3,1.5c0,0.3-0.1,0.6-0.2,0.9
		c0,0.1-0.1,0.2-0.2,0.4c-0.1,0.3-0.4,0.6-0.5,0.9c-0.3,0.5-0.5,0.9-0.8,1.4c0,0.1-0.1,0.1-0.2,0.2c-0.3,0.1-0.6,0.3-0.7,0.5
		c-0.6,1-1.4,1.9-2.4,2.6c-0.8,0.6-1.7,1.2-2.4,1.9c-0.6,0.5-1.4,0.9-2,1.3c-0.4,0.1-0.6,0.6-0.6,1c-0.3,0.9-0.5,1.9-0.7,2.8
		c-0.1,0.7-0.2,1.5-0.6,2.2c0,0.1,0.1,0.2,0.1,0.3c0.6,0.8,1.3,1.4,2.4,1.5c0.8,0.1,1.6-0.1,2.3-0.2c0.8-0.1,1.5-0.5,2.2-1
		c0.8-0.6,1.7-1,2.4-1.7c1.2-0.9,2.2-1.8,3-3c0.6-0.9,1.3-1.7,1.9-2.6c0.9-1.5,1.9-3.1,2.8-4.7c0.3-0.5,0.6-1,0.9-1.4
		c0.1-0.1,0.3-0.1,0.4-0.1c0.4,0.1,0.4,0.8,0.3,1.2c-0.2,0.8-0.9,1-1.3,1.6c-0.3,0.3-0.4,0.6-0.4,0.9c-0.1,0.3-0.1,0.5-0.3,0.8
		c-0.1,0.4-0.3,0.7-0.4,1.1c-0.1,0.1-0.2,0.4-0.4,0.4c-0.4,0.5-0.9,0.9-1.1,1.6c-0.1,0.3-0.4,0.5-0.5,0.8c-0.5,0.9-1,1.7-1.8,2.4
		c-0.4,0.4-0.6,0.8-0.8,1.2c-0.5,0.9-1,1.6-1.8,2.1c-0.4,0.3-0.9,0.5-1.4,0.8c-0.4,0.2-0.6,0.5-1,0.6c-0.4,0.2-0.9,0.3-1.3,0.4
		c-0.3,0.1-0.6,0.1-0.8,0.1c-0.4,0.1-0.9,0.1-1.3,0.1c-1.3,0.1-2.5-0.1-3.7-0.6c-1.1-0.5-1.9-1.4-2.7-2.3c-0.4-0.4-0.6-0.9-0.9-1.4
		c-0.6-1.2-1.1-2.5-1-3.9c0,0-0.1,0-0.1-0.1C242.3,52.7,242.5,51.9,242.6,51.1z M254.9,41.4c-0.5,0.3-0.9,0.6-1.4,0.9
		c-0.2,0.1-0.4,0.2-0.5,0.4c-0.5,0.7-0.9,1.4-1.4,2.1c-0.1,0.3-0.2,0.5-0.4,0.7c-0.2,0.4-0.5,0.8-0.7,1.2c-0.2,0.5-0.4,1-0.5,1.5
		c-0.4,0.9-0.6,1.7-0.9,2.5c0.1,0,0.1-0.1,0.3-0.1c0.7-0.5,1.5-0.9,2.2-1.5c0.9-0.8,1.9-1.7,2.7-2.6c1-1.1,1.5-2.4,1.9-3.9
		c0.1-0.4,0.1-0.7,0.2-1.2c-0.5,0.1-0.8,0-1-0.4C255.2,41.2,255,41.3,254.9,41.4z"/>
</g>
<text transform="matrix(1 0 0 1 262.8364 61.8477)" display="none" font-family="'Bakery'" font-size="72">&gt;</text>
</svg>
