<?xml version="1.0" encoding="utf-8"?>
<!-- Generator: Adobe Illustrator 18.1.1, SVG Export Plug-In . SVG Version: 6.00 Build 0)  -->
<svg version="1.1" xmlns="http://www.w3.org/2000/svg" xmlns:xlink="http://www.w3.org/1999/xlink" x="0px" y="0px"
	 viewBox="0 0 177.4 55" enable-background="new 0 0 177.4 55" xml:space="preserve">
<g id="clip" display="none">
	<g display="inline">
		<path d="M34.7,22.5c-0.5,1.8-1.2,3.7-1.9,5.5c-0.4,0.9-0.9,1.8-1.3,2.7c-0.1,0.2-0.3,0.4-0.4,0.5c-1.1,0.7-2.2,1.6-3.6,1.4
			c-1.1-0.1-2.1-0.1-3.1-0.7c-0.6-0.4-1.2-0.7-1.5-1.3c-0.1-0.2-0.4-0.3-0.6-0.4c-0.1-0.1-0.2-0.2-0.3-0.3c-0.3-1-0.6-1.9-1-2.9
			c-0.5-1.3-1-2.7-1.4-4.1C19.4,22.2,19,21.7,19,21c0-0.3-0.2-0.4-0.6-0.3c-0.9,0.3-1.8,0.7-2.7,1c-1.1,0.3-2.1,0.6-3.1,0.8
			c-1.3,0.3-1.6,0.5-1.6,1.9c0,0.9,0.2,1.8,0.1,2.7c-0.1,1.2-0.4,2.4-0.6,3.6c-0.1,0.8-0.4,1.7-0.4,2.5c0,1.2-0.3,2.4-0.9,3.6
			c-0.4,0.7-0.6,1.5-0.9,2.3c-0.2,0.6-0.7,1.2-1.4,1.2c-0.9,0-1.5-0.6-1.8-1.4c-0.3-1-0.3-1.9-0.2-2.9c0-0.2,0-0.4,0-0.5
			c0.1-0.3-0.1-0.8,0.4-0.9c0.5-0.1,1.2,0.3,1.3,0.7c0.1,0.8,0.1,1.6,0.1,2.4c0,0.2,0,0.4,0.1,0.6C8.2,33.1,8.9,28,9.7,23
			c-2.3,0.3-4.4,0.1-6.3-1.1c-0.1,0-0.2-0.1-0.4-0.2c-0.7-0.6-1.4-1.2-2.2-1.9c-0.1-0.1-0.1-0.2-0.2-0.3c0.1-0.1,0.3-0.2,0.4-0.2
			C2.2,19,3.3,19,4.3,19.6c0.6,0.3,1.2,0.7,1.7,1c0.3,0.1,0.8,0.2,1.2,0.2c0.8,0,1.6-0.1,2.4,0c0.5,0,0.7-0.2,0.8-0.6
			c0.4-1.9,1-3.7,1.2-5.6c0.1-1.1,0.4-2.2,0.8-3.1c0.4-1.1,0.8-2,0.9-3.1c0.1-0.8,0.3-1.7,0.5-2.5c0.1-0.6,0.3-1.2,0.9-1.6
			c0.9-0.6,1.9-1.2,3.1-1c0.3,0,0.6,0,0.9-0.2c1.1-0.4,2.2-0.2,3,0.4C22.4,4,22.7,5,22.8,6.1c0,0.8,0.1,1.7,0.2,2.5
			c0.4,2.1,0.9,4.2,1.4,6.3c0,0.2,0.1,0.5,0.2,0.8c0,0.3,0.2,0.3,0.5,0.2c0.9-0.3,1.7-0.7,2.6-1c0.7-0.2,2.1,0.3,2.3,0.9
			c0.2,0.5,0,0.8-0.6,0.8c-0.3,0-0.6,0-0.9-0.2c-0.4-0.2-0.8-0.1-1.2,0.1c-0.6,0.3-1.1,0.7-1.7,0.9c-0.4,0.1-0.4,0.4-0.3,0.7
			c0.3,1.4,0.6,2.7,1,4.1c0.1,0.5,0.1,1-0.3,1.4c-0.5,0.5,0,1,0,1.4c0,0.7,0,1.4,0,2.2c0,0.2,0,0.4,0,0.6c0,0.4,0,0.7,0,1.1
			c-0.1,0.3-0.1,0.5,0.1,0.8c0.7,0.7,1.4,1.3,2.4,1.5c0.3,0,0.6,0,0.8-0.1c0.9-0.7,1.8-1.3,2.2-2.5c0.4-1.4,1.2-2.7,1.7-4.1
			c0.4-1,0.7-2,1.1-2.9c0-0.1,0.1-0.3,0.1-0.5C35.1,21.4,34.8,22,34.7,22.5z M18.5,19c-1.1-4-1.9-8-3.3-12c-0.2,0.5-0.4,0.7-0.5,1
			c-0.3,1-0.6,1.9-0.9,2.8c-0.4,1.4-0.9,2.7-1.2,4.1c-0.2,0.8,0,1.7,0,2.6c-0.1,1-0.3,2-0.4,3C14.5,20.7,16.4,19.7,18.5,19z"/>
		<path d="M39.3,30.2c1.3-1.8,2.5-3.2,3.6-5.1c0.1-0.3,0.5-1.1,0.7-1.4c0.1-0.2,0.1-0.5,0.2-0.7c0.2-0.4,0.3-0.8,0.5-1.2
			c0-0.1,0.2-0.1,0.3-0.1c0.5,0.1,0.2,0.1,0,0.5c-0.1,0.3-0.1,0.6-0.2,0.9c-0.1,0.3-0.2,0.7-0.4,1c-0.6,1.1-1.2,2.1-1.9,3.1
			c-0.6,0.9-1.1,2-1.7,2.9c-0.5,0.6-0.9,1.3-1.4,1.9c-0.6,0.6-1.2,1-2.2,0.8c-0.3-0.1-0.6-0.2-1-0.3c-1-0.3-1.4-1.1-2-1.8
			c-0.5-0.8-0.6-1.7-0.6-2.6c0-1.3,0-2.7,0.1-4.1c0-1.1,0.1-2.2,0.2-3.3c0-0.7,0.1-1.2,0.2-1.9c0-0.7,0.3-5,0.3-5.8
			c0-0.8,0.1-1.5,0.2-2.4c0-0.7,0-1.3,0.1-2c0.1-0.8,0.2-1.6,0.4-2.4c0-0.4,0.3-0.7,0.8-0.8c0.7,0,1.3,0.1,2,0.3
			c0.5,0.1,0.8,0.5,1.2,0.7c0.5,0.3,0.8,0.8,1,1.3c0.2,0.6,0.1,1.1,0.1,1.7c0,0.7,0,1.3-0.1,2c-0.1,0.8-0.2,1.6-0.2,2.4
			c0,0.4-0.2,4.4-0.2,4.8s-0.1,0.9-0.1,1.3c0,0.6,0,1.2-0.1,1.7c-0.2,0.9,0,1.8-0.1,2.6c-0.1,0.7-0.1,1.4-0.2,2.2c0,0.3,0,0.6,0,0.9
			c0,1.1,0,2.1,0,3.2c0,0.1,0,0.1,0,0.2c0,0,0,0,0.1,0C38.9,30.6,39.1,30.4,39.3,30.2z"/>
		<path d="M49.6,30.2c1.3-1.8,2.5-3.2,3.6-5.1c0.1-0.3,0.5-1.1,0.7-1.4c0.1-0.2,0.1-0.5,0.2-0.7c0.2-0.4,0.3-0.8,0.5-1.2
			c0-0.1,0.2-0.1,0.3-0.1c0.5,0.1,0.2,0.1,0,0.5c-0.1,0.3-0.1,0.6-0.2,0.9c-0.1,0.3-0.2,0.7-0.4,1c-0.6,1.1-1.2,2.1-1.9,3.1
			c-0.6,0.9-1.1,2-1.7,2.9c-0.5,0.6-0.9,1.3-1.4,1.9c-0.6,0.6-1.2,1-2.2,0.8c-0.3-0.1-0.6-0.2-1-0.3c-1-0.3-1.4-1.1-2-1.8
			c-0.5-0.8-0.6-1.7-0.6-2.6c0-1.3,0-2.7,0.1-4.1c0-1.1,0.1-2.2,0.2-3.3c0-0.7,0.1-1.2,0.2-1.9c0-0.7,0.3-5,0.3-5.8
			c0-0.8,0.1-1.5,0.2-2.4c0-0.7,0-1.3,0.1-2C44.9,7.8,45,7,45.2,6.2c0-0.4,0.3-0.7,0.8-0.8c0.7,0,1.3,0.1,2,0.3
			c0.5,0.1,0.8,0.5,1.2,0.7c0.5,0.3,0.8,0.8,1,1.3c0.2,0.6,0.1,1.1,0.1,1.7c0,0.7,0,1.3-0.1,2c-0.1,0.8-0.2,1.6-0.2,2.4
			c0,0.4-0.2,4.4-0.2,4.8s-0.1,0.9-0.1,1.3c0,0.6,0,1.2-0.1,1.7c-0.2,0.9,0,1.8-0.1,2.6c-0.1,0.7-0.1,1.4-0.2,2.2c0,0.3,0,0.6,0,0.9
			c0,1.1,0,2.1,0,3.2c0,0.1,0,0.1,0,0.2c0,0,0,0,0.1,0C49.3,30.6,49.5,30.4,49.6,30.2z"/>
		<path d="M64.5,24.3c-0.5,1-0.9,2.1-1.5,3.2c-0.2,0.3-0.3,0.8-0.5,1.2c-0.6,1-1.2,1.9-2.1,2.6c-0.2,0.2-0.6,0.7-0.9,0.9
			c-0.5,0.1-1,0.3-1.5,0.3c-0.6,0.1-1.2,0.1-1.8-0.1c-1-0.4-1.5-1.2-1.8-2.2c-0.1-0.5-0.2-1-0.3-1.5c-0.3-1.1-0.1-2.1-0.2-3.1
			c0-1.1,0.1-2.2,0.2-3.3c0-0.6,0.1-1.2,0.2-1.9c0-0.5,0.1-1,0.2-1.4c0-0.2,0-0.4,0.1-0.6c0.2-0.9,0.7-1.3,1.5-1.3
			c0.5,0,1.1,0.3,1.6,0.5c0.8,0.3,1.1,1,1.5,1.6c0.2,0.3,0.1,0.8,0.2,1.2c0,0.2,0.1,0.4,0.1,0.6c0,0.3,0,0.7,0,1
			c0,0.8,0,1.5-0.1,2.3c0,0.5,0,1-0.1,1.5c0,0.2,0,0.3,0,0.5c-0.3,1.2-0.4,2.5-0.5,3.7c0,0.2,0,0.4,0,0.5c-0.1,0.1-0.3,0.4-0.5,0.4
			c-0.4,0-0.4,0.3-0.5,0.7c0.3-0.1,0.5-0.2,0.8-0.3c0.8-0.1,1.2-0.8,1.8-1.3c1.6-1.6,2.6-3.6,3.6-5.7c0.1-0.2,0.1-0.5,0.3-0.8
			c0.2,0.1,0.2,0,0.4,0.1S64.7,24,64.5,24.3z M54.7,13.3c0-0.5,0.3-0.7,0.8-0.8c0.6-0.1,1.2-0.4,1.9-0.5c0.5,0,1.1,0.2,1.7,0.3
			c0.5,0.1,0.6,0.6,0.6,1c0,0.3,0,0.7-0.3,0.9c-0.5,0.4-1.1,0.8-1.8,0.8c-0.7-0.1-1.3-0.3-2-0.4C55.1,14.4,54.7,13.7,54.7,13.3z
			 M59.5,32.1"/>
		<path d="M80.8,25c-0.5,0.9-0.9,1.7-1.5,2.6c-0.2,0.3-0.3,0.6-0.5,1c-0.6,0.8-1.2,1.5-2.1,2.1c-0.2,0.2-0.6,0.6-0.9,0.7
			c-0.5,0.1-1,0.2-1.5,0.3c-0.4,0-0.8,0-1.2,0c-0.2,0.1-0.4,0.2-0.7,0.4c-0.2,0.1-0.4,0.1-0.7,0.2c-0.1,0-2.5,0.5-3,0.5
			c-0.3,0-0.5,0.2-0.8,0c0,0-0.1,0-0.1,0c-0.6,0.2-1.1-0.3-1.6-0.5c-0.1,0-0.2-0.1-0.3-0.1c-0.3,0-0.5-0.3-0.6-0.5
			c-0.1-0.2,0.2-0.7,0.5-0.5c0.5,0.3,1,0.6,1.5,0.7c0.1,0,0.3,0.1,0.5,0.1c0.7,0,1.1-0.3,1.4-0.7c0-0.1,0.1-0.2,0.2-0.2
			c1-0.4,1.4-1.1,1.8-1.9c0.2-0.4,0.4-0.8,0.4-1.2c0-0.9,0-1.8-0.4-2.8c-0.3-0.6-0.7-1.2-1.1-1.8c-0.3-0.4-0.9-0.8-1.2-1.2
			c-0.5-0.6-1.2-1.1-1.7-1.6c0,0-0.8-0.7-0.8-0.7c-0.7-0.8-1.1-1.4-1.4-2.4c-0.3-0.8-0.3-1.5,0-2.2c0.1-0.3,0.4-0.5,0.7-0.8
			c0.2-0.2,0.5-0.3,0.7-0.5c0.4-0.4,1-0.6,1.5-0.7c0.6-0.1,1.3,0.1,1.9,0.6c0.3,0.3,0.8,1.2,0.3,1.2c-0.1,0-0.2,0.2-0.3,0.3
			c-0.1,0.4-0.2,0.9-0.4,1.2c-0.1,0.2-0.3,0.4-0.5,0.6c-0.4,0.6-0.2,0.9,0.4,1.5c0.7,0.8,1.6,1.4,2.5,2.1c0.8,0.5,1.5,1.2,2.2,1.8
			c0.4,0.4,0.7,0.8,1.1,1.2c0.3,0.3,0.6,0.6,0.9,0.9c0.5,0.5,0.6,1.1,0.7,1.7c0.1,0.3,0.2,0.5,0.2,0.8c0.1,1.8-1.4,2.8-2,3.3
			c-0.1,0.1-0.2,0.2-0.3,0.3c0.1,0,0.3-0.1,0.4-0.1c0.8-0.1,1.2-0.6,1.8-1.1c1.6-1.3,2.6-3,3.6-4.7c0.1-0.1,0.1-0.3,0.3-0.6
			c0.2,0.1,0.2,0,0.4,0.1C81.2,24.6,80.9,24.7,80.8,25z M75.8,31.4"/>
		<path d="M93.2,25.4c0.4-0.6,1.2-1.5,1.5-2.1c0.7-1.1,1.2-1.5,1.7-2.7c0.3-0.7,0.6-1.4,1-2.1c0.1,0.3,0.2,0.2,0.1,0.6
			c-1.3,5.5-5.2,8-5.9,8.1c-0.2,0-0.3,0-0.3,0.2c-0.1,0.4-0.2,0.7-0.4,1c-0.3,0.6-0.5,1.3-0.5,2c0,0.6-0.3,1.1-0.9,1.4
			c-0.6,0.3-1.2,0.4-1.9,0.3c-0.4,0-0.8-0.1-1.2-0.2c-0.5-0.1-1-0.3-1.4-0.5c-0.4-0.2-0.7-0.4-1.1-0.6c-0.9-0.4-1.6-1.1-2.3-1.7
			c-0.7-0.6-1.2-1.3-1.5-2.2c-0.1-0.5-0.1-1-0.2-1.4c-0.3-0.9-0.1-1.8,0.1-2.6c0.2-0.7,0.6-1.4,1-2.1c0.4-0.7,0.8-1.4,1.3-2.1
			c0.4-0.5,1-1.1,1.7-1.3c0.2-0.1,0.4-0.3,0.6-0.4c0.5-0.4,1.1-0.3,1.6-0.2c0.6,0,0.9,0.4,1.2,0.8c0.2,0.3,0.4,0.7,0.6,1.1
			c0.1,0.2,0.2,0.1,0.4,0.1c0.2-0.1,0.6-0.2,0.8-0.2c0.4,0.1,0.8,0.2,1.1,0.6c0.2,0.2,0.5,0.4,0.7,0.7c0.6,0.8,0.8,1.6,0.7,2.5
			c0,0.2,0,0.4,0.1,0.7c0,0.4,0.1,0.9,0.1,1.3c0,0.5,0,1,0,1.6C92.2,25.6,92.8,25.8,93.2,25.4z M86.2,22.2c-0.2,0.4-0.6,0.7-0.7,1.2
			c-0.3,0.8-0.5,1.5-0.5,2.4c0,0.3,0,0.6,0.1,0.9c0.1,0.4,0.1,0.8,0.1,1.2c0,0.3,0,0.7,0.2,0.9c0.4,0.6,1.2,0.7,1.8,0.8
			c0.4,0,0.7-0.2,1-0.5c0.8-0.6,1.5-1.3,1.7-2.4c-1.9-0.9-3.2-2.4-3.7-4.5C86.3,22.2,86.3,22.2,86.2,22.2z M90.4,25.4
			c0-0.6,0-1.2,0-1.7c0-0.7-0.2-1.3-0.2-2c-0.1-1-1.2-1.8-1.9-2c-0.1,0-0.2,0-0.3,0c-0.1,0.3-0.3,0.6-0.2,0.9
			c0.1,0.6,0.4,1.2,0.9,1.7c0.1,0.1,0.2,0.2,0.2,0.4c0.1,0.2,0.2,0.4,0.3,0.6c0.2,0.4,0.5,0.9,0.7,1.3c0.1,0.2,0.2,0.5,0.3,0.7
			C90.3,25.4,90.3,25.4,90.4,25.4z"/>
		<path d="M103.3,18.1c0.9-0.8,1.8-1.1,3-0.9c1,0.2,1.8,0.7,2.4,1.5c0.6,0.6,1,1.3,1.2,2.2c0.2,0.6,0.1,1.1,0,1.6
			c-0.1,0.3-0.1,0.6-0.2,0.9c-0.1,0.5-0.3,0.9-0.5,1.3c0,0,0,0.1-0.1,0.2c-0.2,1.2-0.4,2.3-0.6,3.4c0,0.1,0,0.3,0,0.4
			c0,0.4,0,1.1,0,1.6c0.3-0.2,1.3-0.5,1.5-0.7c1-0.7,1.9-1.5,2.3-2.5c0.4-0.9,1.3-2.4,1.6-3.3c0.1-0.3,0-0.5,0.1-0.8
			c0.2-0.5,0.9-1,0.9-0.8c0.1,0.3,0,0.7-0.1,1c-0.2,0.7-0.4,1.5-1,2.4c-0.4,0.7-0.7,1.2-1,1.8c-0.2,0.4-0.5,0.7-0.7,1.1
			c-0.3,0.8-1,1.3-1.7,1.8c-0.3,0.2-0.7,0.4-1.1,0.6c-0.2,0.1-0.4,0.1-0.7,0.2c-0.3,0.1-0.6,0.1-0.9,0.3c-0.6,0.3-1.1,0-1.6-0.1
			c-0.7-0.3-1.3-0.8-1.9-1.3c-1.1-1-1.2-2.2-1.3-3.5c0-0.5,0.2-1,0.2-1.5c0-0.5,0.2-1.1,0.3-1.5c0.3-1,0.6-1.9,0.9-2.8
			c0.2-0.5,0.5-0.9,0.7-1.4c0.1-0.2,0.1-0.6,0.1-0.9c0-0.2,0-0.3-0.2-0.2c-0.4,0-0.8,0.1-1.2,0.2c-0.3,0.1-0.5,0.3-0.7,0.6
			c-0.4,0.4-0.8,0.9-1,1.4c-0.3,0.6-0.5,1.2-0.7,1.9c-0.2,0.7-0.3,1.3-0.4,2.1c0,0.4,0,0.9,0,1.4c0,0.4,0.1,0.8,0.1,1.2
			c0,0.4,0,0.9,0.1,1.2c0,0.3,0.1,0.7,0,1s-0.1,0.8-0.1,1.2c-0.1,0.5-0.1,1-0.2,1.5c-0.1,0.4-0.6,0.8-1.2,0.6
			c-0.5-0.1-1.1-0.2-1.6-0.5c-0.6-0.3-1.2-0.4-1.8-0.6c-0.4-0.1-0.4-0.3-0.4-0.7c0-0.5,0.1-1,0-1.4c0-0.6-0.1-1.2-0.2-1.8
			c-0.1-0.9,0-1.7,0-2.6c0-0.3-0.1-0.6-0.1-1c0-0.4,0-0.8,0-1.2c0-0.7,0.1-1.4,0.1-2.2c0-0.2,0-0.5,0-0.8c0-0.8,0.1-1.5,0.2-2.3
			c0-0.4,0-0.9,0-1.3c-0.1-0.7,0.3-0.8,0.8-1.1c0.6-0.3,1.2-0.1,1.8,0c0.7,0.1,1.2,0.7,1.7,1.1c0.5,0.3,0.8,0.8,1.1,1.3
			c0.1,0.2,0.2,0.5,0.2,0.8c0,0.4,0,0.8,0,1.2C102.3,19,102.8,18.6,103.3,18.1z"/>
		<path d="M150.6,22.1c-0.1,0.4-0.1,0.8-0.2,1c-0.6,1-1.3,1.9-2.2,2.6c-1.1,1-2.2,1.9-2.7,3.3c-0.2,0.7-0.3,1.4-0.5,2.2
			c-0.3,1.2-0.6,2.4-1.1,3.4c-0.5,1.3-1.3,2.6-1.8,3.9c-0.4,1.3-1.4,2.2-1.9,3.3c-0.1,0.4-0.3,0.9-0.4,1.2c-0.3,0.9-0.7,1.8-1,2.7
			c0,0.3-0.1,0.6-0.1,0.8c-0.1,1.6-1.1,2.9-1.7,4.3c-0.3,0.7-0.7,1.3-1.2,1.8c-0.2,0.3-0.6,0.4-1,0.6c-0.7,0.2-1.2,0.9-1.6,1.3
			c-0.1,0.2-0.5,0.3-0.8,0.3c-1.1-0.3-2.2-0.6-3.2-1c-1.4-0.5-2.2-1.6-2.5-3.1c-0.6-2.9,0-5.6,1.7-8c0.8-1.2,1.9-2.2,3.1-3.2
			c0.8-0.7,1.5-1.5,2.3-2.3c1-0.9,1.9-1.9,2.9-2.7c0.7-0.5,0.7-1.3,0.9-2.1c0.2-1.5,0.4-2.9,0.5-4.4c0.2-1.6,0.2-3.2,0.4-4.8
			c0-0.7,0.1-1.5,0.2-2.3c0-0.1,0-0.3,0-0.6c-0.3,0.4-0.5,0.7-0.7,1c-0.9,1.2-1.8,2.4-2.7,3.6c-0.6,0.7-1.1,1.4-1.6,2.2
			c-0.5,0.7-1,1.4-1.4,2.1c-0.5,0.9-1.4,1.4-2.4,1.8c-0.2,0.1-0.4,0.3-0.5,0.5c-0.4,0.8-0.8,1-1.7,0.8c-0.7-0.2-1.3-0.6-2-0.9
			c-0.3-0.2-0.7-0.6-1-0.9c-0.6-0.6-0.7-1.4-0.9-2.3c-0.2-1.2,0.2-2.5,0.3-3.7c0-0.4,0-0.8,0-1.2c0-0.6,0-1.2,0-1.8
			c0-0.4,0.1-0.9,0.1-1.3c0-0.9,0.1-1.8,0-2.7c-0.1-0.4,0.1-0.4,0.2-0.6c0-0.6,0.1-1.2,0.1-1.7c0.1-0.8,0.2-1.5,0.3-2.3
			c0.1-1,0.3-2.1,0.5-3.1c0-0.5,0.1-1,0.2-1.5c0-0.1,0-0.2,0-0.3c-0.1-1.7,0.4-3.3,0.2-4.9c0-0.3-0.1-0.5-0.1-0.8
			c-0.6,0.2-1.2,0.5-1.9,0.6c-0.5,0.1-1-0.1-1.5-0.2c0.2-0.4,0.4-0.9,0.7-1.2c0.7-0.7,1.4-1.3,2.3-1.6c1.1-0.4,2.2-0.2,3.2,0.4
			c0.8,0.5,1.2,1.2,1.7,1.9c0.9,1.1,1.1,2.4,1.4,3.6c0.2,1.1,0.5,2.2,0.8,3.3c0.1,0.7,0.2,1.3,0.3,2c0.1,0.5,0.3,1,0.4,1.5
			c0.1,0.6,0.1,1.1,0.2,1.7c0.1,1.2,0.2,2.5,0.2,3.7c0,1-0.2,1.9-0.3,2.8c-0.1,0.9-0.3,1.9-0.5,2.9c0.2-0.2,0.3-0.3,0.4-0.4
			c1-1.2,2-2.4,3-3.6c0.9-1.2,1.8-2.3,2.5-3.5c0.4-0.7,0.6-1.6,0.8-2.4c0.3-1.3,1.1-2.4,2.2-3.3c0.6-0.5,1.9-0.3,2.2,0.3
			c0.2,0.4,0.1,1,0.1,1.4c0,1-0.2,1.9-0.2,2.9c0,0.8,0.1,1.6,0.1,2.4c0,1.5,0.6,2.9,1,4.3c0.2,0.6,0.3,1.3,0.5,2
			c0.1,0.6,0.2,1.2,0.4,2.1C147.3,25,148.9,23.6,150.6,22.1z M135.6,38.1c-1.5,1.6-3.1,3.3-4.7,4.8c-1,0.9-1.4,2-1.8,3.2
			c-0.2,0.8-0.6,1.5-0.9,2.2c-0.2,0.6-0.4,1.2-0.4,1.7c0,1.8,0.4,2.4,2.2,2.8c0.3,0.1,0.6,0.2,1,0.3s0.6,0.1,0.8-0.2
			c0.7-1.2,1.6-2.4,2.1-3.7c0.5-1.4,0.8-2.9,1.1-4.4c0.5-2.4,0.9-4.7,1.3-7.1c0-0.1,0-0.3-0.1-0.5C136,37.6,135.8,37.9,135.6,38.1z"
			/>
		<path d="M149.3,25.4c0-0.2,0-0.5,0.1-0.8c0-0.1,0.1-0.2,0.2-0.4c0.1-0.7,0.3-1.2,0.6-1.8c0.2-0.6,0.5-1.2,0.9-1.8
			c0.2-0.3,0.4-0.7,0.6-1c0.1-0.2,0.2-0.4,0.4-0.5c0.2-0.2,0.3-0.4,0.5-0.6c0.4-0.4,0.8-0.9,1.2-1.2c0.3-0.3,0.7-0.4,1-0.6
			c0.1,0,0.2-0.1,0.3-0.2c0.3-0.4,0.8-0.5,1.2-0.6c0.3-0.1,0.6-0.2,1.1-0.1c0.3,0,0.6,0,0.9,0.2c0.3,0.2,0.6,0.5,0.7,0.9
			c0,0.2,0.1,0.4,0.2,0.6c0.1,0.3,0.3,0.5,0.4,0.8c0,0,0,0.1,0,0.2c0,0.3-0.1,0.7-0.2,1c0,0.2,0,0.4-0.1,0.6c0,0-0.1,0.1-0.1,0.2
			c-0.1,0.2-0.2,0.4-0.3,0.6c-0.2,0.3-0.3,0.6-0.5,1c0,0-0.1,0.1-0.1,0.1c-0.2,0.1-0.4,0.2-0.5,0.3c-0.4,0.7-1,1.2-1.6,1.7
			c-0.5,0.4-1.1,0.8-1.6,1.2c-0.4,0.3-0.9,0.6-1.3,0.9c-0.2,0.1-0.4,0.4-0.4,0.7c-0.2,0.6-0.3,1.2-0.5,1.9c-0.1,0.5-0.1,1-0.4,1.4
			c0,0,0,0.1,0,0.2c0.4,0.5,0.9,1,1.6,1c0.5,0,1.1,0,1.5-0.1c0.5,0,1-0.3,1.4-0.7c0.5-0.4,1.1-0.7,1.6-1.1c0.8-0.6,1.5-1.2,2-2
			c0.4-0.6,0.9-1.2,1.2-1.7c0.6-1,1.2-2.1,1.9-3.1c0.2-0.3,0.4-0.7,0.6-1c0,0,0.2-0.1,0.3,0c0.2,0.1,0.3,0.5,0.2,0.8
			c-0.1,0.5-0.6,0.7-0.9,1.1c-0.2,0.2-0.2,0.4-0.2,0.6c0,0.2-0.1,0.3-0.2,0.5c-0.1,0.2-0.2,0.5-0.3,0.7c0,0.1-0.1,0.2-0.2,0.3
			c-0.3,0.3-0.6,0.6-0.7,1.1c0,0.2-0.2,0.3-0.3,0.5c-0.3,0.6-0.7,1.2-1.2,1.6c-0.2,0.2-0.4,0.5-0.5,0.8c-0.3,0.6-0.7,1.1-1.2,1.4
			c-0.3,0.2-0.6,0.3-0.9,0.5c-0.2,0.1-0.4,0.3-0.7,0.4c-0.3,0.1-0.6,0.2-0.9,0.3c-0.2,0-0.4,0.1-0.5,0.1c-0.3,0-0.6,0-0.9,0.1
			c-0.9,0.1-1.7-0.1-2.5-0.4c-0.7-0.3-1.3-0.9-1.8-1.5c-0.2-0.3-0.4-0.6-0.6-0.9c-0.4-0.8-0.7-1.7-0.7-2.6c0,0,0,0,0,0
			C149.1,26.5,149.2,26,149.3,25.4z M157.5,19c-0.3,0.2-0.6,0.4-0.9,0.6c-0.1,0.1-0.3,0.1-0.3,0.2c-0.3,0.5-0.6,1-0.9,1.4
			c-0.1,0.2-0.1,0.3-0.2,0.5c-0.1,0.3-0.3,0.5-0.5,0.8c-0.1,0.3-0.2,0.7-0.3,1c-0.2,0.6-0.4,1.1-0.6,1.7c0,0,0.1,0,0.2-0.1
			c0.5-0.3,1-0.6,1.4-1c0.6-0.5,1.2-1.1,1.8-1.7c0.7-0.7,1-1.6,1.3-2.6c0.1-0.2,0.1-0.5,0.1-0.8c-0.3,0.1-0.5,0-0.7-0.3
			C157.7,18.8,157.5,18.9,157.5,19z"/>
		<path d="M162.3,25.4c0-0.2,0-0.5,0.1-0.8c0-0.1,0.1-0.2,0.2-0.4c0.1-0.7,0.3-1.2,0.6-1.8c0.2-0.6,0.5-1.2,0.9-1.8
			c0.2-0.3,0.4-0.7,0.6-1c0.1-0.2,0.2-0.4,0.4-0.5c0.2-0.2,0.3-0.4,0.5-0.6c0.4-0.4,0.8-0.9,1.2-1.2c0.3-0.3,0.7-0.4,1-0.6
			c0.1,0,0.2-0.1,0.3-0.2c0.3-0.4,0.8-0.5,1.2-0.6c0.3-0.1,0.6-0.2,1.1-0.1c0.3,0,0.6,0,0.9,0.2c0.3,0.2,0.6,0.5,0.7,0.9
			c0,0.2,0.1,0.4,0.2,0.6c0.1,0.3,0.3,0.5,0.4,0.8c0,0,0,0.1,0,0.2c0,0.3-0.1,0.7-0.2,1c0,0.2,0,0.4-0.1,0.6c0,0-0.1,0.1-0.1,0.2
			c-0.1,0.2-0.2,0.4-0.3,0.6c-0.2,0.3-0.3,0.6-0.5,1c0,0-0.1,0.1-0.1,0.1c-0.2,0.1-0.4,0.2-0.5,0.3c-0.4,0.7-1,1.2-1.6,1.7
			c-0.5,0.4-1.1,0.8-1.6,1.2c-0.4,0.3-0.9,0.6-1.3,0.9c-0.2,0.1-0.4,0.4-0.4,0.7c-0.2,0.6-0.3,1.2-0.5,1.9c-0.1,0.5-0.1,1-0.4,1.4
			c0,0,0,0.1,0,0.2c0.4,0.5,0.9,1,1.6,1c0.5,0,1.1,0,1.5-0.1c0.5,0,1-0.3,1.4-0.7c0.5-0.4,1.1-0.7,1.6-1.1c0.8-0.6,1.5-1.2,2-2
			c0.4-0.6,0.9-1.2,1.2-1.7c0.6-1,1.2-2.1,1.9-3.1c0.2-0.3,0.4-0.7,0.6-1c0,0,0.2-0.1,0.3,0c0.2,0.1,0.3,0.5,0.2,0.8
			c-0.1,0.5-0.6,0.7-0.9,1.1c-0.2,0.2-0.2,0.4-0.2,0.6c0,0.2-0.1,0.3-0.2,0.5c-0.1,0.2-0.2,0.5-0.3,0.7c0,0.1-0.1,0.2-0.2,0.3
			c-0.3,0.3-0.6,0.6-0.7,1.1c0,0.2-0.2,0.3-0.3,0.5c-0.3,0.6-0.7,1.2-1.2,1.6c-0.2,0.2-0.4,0.5-0.5,0.8c-0.3,0.6-0.7,1.1-1.2,1.4
			c-0.3,0.2-0.6,0.3-0.9,0.5c-0.2,0.1-0.4,0.3-0.7,0.4c-0.3,0.1-0.6,0.2-0.9,0.3c-0.2,0-0.4,0.1-0.5,0.1c-0.3,0-0.6,0-0.9,0.1
			c-0.9,0.1-1.7-0.1-2.5-0.4c-0.7-0.3-1.3-0.9-1.8-1.5c-0.2-0.3-0.4-0.6-0.6-0.9c-0.4-0.8-0.7-1.7-0.7-2.6c0,0,0,0,0,0
			C162.2,26.5,162.3,26,162.3,25.4z M170.5,19c-0.3,0.2-0.6,0.4-0.9,0.6c-0.1,0.1-0.3,0.1-0.3,0.2c-0.3,0.5-0.6,1-0.9,1.4
			c-0.1,0.2-0.1,0.3-0.2,0.5c-0.1,0.3-0.3,0.5-0.5,0.8c-0.1,0.3-0.2,0.7-0.3,1c-0.2,0.6-0.4,1.1-0.6,1.7c0,0,0.1,0,0.2-0.1
			c0.5-0.3,1-0.6,1.4-1c0.6-0.5,1.2-1.1,1.8-1.7c0.7-0.7,1-1.6,1.3-2.6c0.1-0.2,0.1-0.5,0.1-0.8c-0.3,0.1-0.5,0-0.7-0.3
			C170.7,18.8,170.6,18.9,170.5,19z"/>
	</g>
	<g display="inline">
		<path d="M157.4,39.7c-0.8,0.2-0.9,0-1.8-0.2c-0.7,0-1.2-0.3-1.8-0.3c-0.7-0.2-1.2,0-1.8-0.2c-0.7,0-1.2,0-1.9-0.2
			c-0.6,0-1.1-0.3-1.7-0.3c-0.5,0-1.3,0.2-1.8,0c-0.5,0-1.2-0.2-1.8-0.2c-0.6,0-1.2,0-1.8,0c-0.8-0.1-1.2-0.1-1.8-0.1
			c-0.6,0-1.2,0-1.8-0.2c-0.7,0-1.2,0-2,0c-0.6,0-3.1-0.2-3.6-0.2c-0.5,0-1.3,0.2-1.8,0.2c-0.7,0-9.7,0.7-16.3,2.4
			c-0.6,0-3,0.3-3.6,0.5c-0.5,0.2-1.3,0.2-1.8,0.4c-0.5,0-1.2,0.3-1.8,0.5c-0.5,0.2-1.2,0.2-1.8,0.2c-0.5,0.1-1.2,0.3-1.7,0.5
			c-0.6,0.2-1.2,0.3-1.7,0.5c-0.7,0.2-1.2,0.4-1.8,0.6c-0.7,0.1-1.2,0.3-1.8,0.5c-0.8,0.2-1.4,0.2-1.8,0.3c-0.7,0.4-1,0.4-1.6,0.4
			c-0.7,0-1.1-0.1-1.2-0.9c0-0.3,0.2-1.1,0.5-1.6c0.2-0.5,0.7-0.9,1.1-1.2c0.5-0.6,1.1-0.6,1.6-0.7c0.5-0.1,1.1-0.6,1.6-0.8
			c10.6-2.6,17.6-3.4,18.3-3.4c0.6-0.1,1.2,0.1,1.8,0c0.5,0,1.2-0.1,1.8-0.1c0.8-0.2,1.2-0.2,1.9-0.2c0.7,0,1.2,0,1.9,0
			c0.6,0,1.3-0.2,1.8-0.2c0.7,0,1.2,0.2,1.8,0.2c0.8,0,1.2,0,2,0c0.5,0,1.2,0,1.8,0c0.5,0,1.2,0,1.7,0c0.8,0,1.3,0,2,0
			c0.6,0.2,1.2,0.2,1.9,0.4c0.5,0,1.3,0.1,1.8,0.1c0.7,0.2,1.2,0.2,1.8,0.2c0.7,0,1.2,0,2,0.2c0.6,0,1.3,0,1.8,0
			c0.5,0.2,1.2,0.4,1.8,0.4c0.7,0.1,1.2,0.1,1.7,0.3c0.7,0,1.2,0.2,1.8,0.2c0.4,0,0.9,0.7,1.1,0.9c0.4,0.2,0.5-0.3,0.7-0.2
			c0.5,0,1.1,0.4,1.4,0.4c0.2,0,0.4-0.4,0.5-0.2c0.5,0.2,1.2,0.2,1.7,0.3c1.2,0.4,1,0,1.6,0.6C158.6,40.3,158.1,39.7,157.4,39.7z"/>
	</g>
</g>
<g id="EE">
	<path fill="none" stroke="#000000" stroke-linecap="round" stroke-linejoin="round" stroke-miterlimit="10" d="M151.8,24.9
		c0.6,0.3,1.2,0.5,1.9,0.6c2.9-1.7,4.5-3.7,5.2-6.5c-0.5-0.8-1.2-1.2-2.1-1.5c-1.5,0.8-2.7,1.7-3.6,3.2c-0.6,1-1.2,2-1.5,3
		c-0.6,1.8-1.4,3.7-1,5.8c0.3,1.6,1.1,2.6,2.7,2.7c1.2,0.1,2.3-0.2,3.4-0.8c1.8-1,3.1-2.6,4-4.3c0.7-1.3,1.6-1.7,2.9-1.5l1.4-0.5
		c0.4,0.4,1.1,0.3,1.6,0.5c1.7-1.3,3.4-2.4,4.4-4.5c1-2.2,1.1-2.2-0.8-3.7c-2.7,0.7-4,2.9-5.1,5.2c-0.4,1-0.8,2-1.3,2.9
		c-0.7,1.1-0.2,5,0.6,5.8c1.2,1.2,3,1.3,4.9,0.4c1.9-1,3.1-2.6,4.3-4.3c1.1-1.5,1.8-3.2,2.9-4.7"/>
</g>
<g id="Y">
	<path fill="none" stroke="#000000" stroke-linecap="round" stroke-linejoin="round" stroke-miterlimit="10" d="M122.4,2.9
		c0.7-0.2,1.2-0.6,1.8-1c1.4-0.8,2.8-0.3,3.4,1.2c0.4,1,0.7,2.1,0.7,3.1c0.2,3.9,0.6,15.9,0.3,19.8c0.8,0.3,1.6,0,2.4,0
		c1.3-0.1,2.4-0.7,3.2-1.8c0.8-1.1,1.6-2.1,2.4-3.1c0.9-1.3,2.2-1.9,3.7-1.9l1.8-8.2c0,0.6,0.2,1.3-0.2,1.9
		c-0.4,0.6-0.5,1.2-0.6,1.9c-0.1,1.5-0.4,2.9-0.8,4.3c1,1.8,0.8,3.8,1.1,5.7c0.1,0.9,0.4,2,0.2,2.9c-0.7,3-0.7,6.1-2.5,8.8
		c-0.1,0.1-0.2,0.3-0.1,0.5c0.1,1-0.2,1.8-0.6,2.6c-0.8,1.5-1.1,3.2-1.5,4.8c-0.8,3.3-1.4,6.7-4.3,9c-0.4,0.3-0.6,0.8-1.3,0.7
		c-1-0.2-2-0.5-2.9-1c-0.7-0.4-1.2-1-1.3-1.9c-0.4-3.3,0.6-6.3,2.8-8.7c1.7-1.9,3.6-3.5,5.3-5.4c0.4-0.5,0.4-1,1-0.8
		c0.7,0.2,4.8-8.8,5.5-8.5l0.2-0.2c0.3,0,0.6,0,0.8,0c1.7,0.1,3.3-0.1,4.5-1.7c0.5-0.7,1.2-1.1,1.9-1.7c0.5,0,1,0,1.5,0
		c0.3,0,0.6,0.1,0.8,0.2"/>
</g>
<g id="N">
	<path display="none" fill="none" stroke="#000000" stroke-linecap="round" stroke-linejoin="round" stroke-miterlimit="10" d="
		M114.6,22.6c-0.7,1.7-1.3,3.4-2.3,4.9c-0.8,1.3-1.7,2.5-3.1,3.1c-1,0.4-1.8,0.2-2.4-0.5c-0.8-1-1.3-2.2-1.1-3.6
		c0.2-1.2,0.5-2.4,0.9-3.6c0.5-1.2,0.5-2.5,0-3.7c-0.6-1.7-1.7-1.8-3.1-1c-0.3,0.2-0.6,0.3-0.7,0.6c-1,1.5-2.5,1.5-4,1.6l-1.3-4.1
		c0,0.2,0,0.3,0.1,0.5c1.2,1.4,1.3,3,1,4.7c-0.4,2.1-0.2,4.2-0.1,6.4c0,1.2,0.3,2.3,1,3.2c0.3,0.4,0.4,0.9,0.3,1.3"/>
	<path fill="none" stroke="#000000" stroke-linecap="round" stroke-linejoin="round" stroke-miterlimit="10" d="M98.2,16.7l0.4,13.8
		c0,0-2.7-6.7,5.1-12.3s1.5,10.8,1.5,10.8s4.3,6.6,8.9-5.1"/>
</g>
<g id="S">
	<path fill="none" stroke="#000000" stroke-linecap="round" stroke-linejoin="round" stroke-miterlimit="10" d="M69.6,14.9
		c-1.5,0-2.8,0.5-3,1.6c-0.2,1.2,0.1,2.3,1,3.1c1,0.9,2,1.8,3,2.6c1.4,1.1,2.3,2.5,3,4.1c0.6,1.2,0,2.8-0.9,3.7
		c-1.2,1.1-2.7,1.8-4.2,2.4c-1.2,0.5-2.2-0.2-3.1-0.8l7.3-1.5c0.6,0.7,2.5,1.2,3.2,0.7c1.5-1.1,2.6-2.7,3.7-4.2
		c0.8-0.2,1.6-0.3,2.4-0.5l3.4-6.4c1.1-0.2,2.4-0.4,3.7,0c0.6,0.5,1.3,1.2,1.4,2.1c0.3,1.6,0.3,3.2,0,4.7c-0.3,1.2-0.7,2.4-1.4,3.5
		c-0.5,0.8-1.2,1.2-2.2,1c-2.8-0.4-4.1-2.3-4.8-4.8v-0.1c-0.2-1.4,0-2.6,0.7-3.8c0.6-1.1,1.3-2.4,2.5-2.6c1.1,1,2.1,3.8,3,5
		c0.6,0.8,1,1.6,2.1,1.8l0.1,0.1l0.1,0.1c0.7,0.3,1.3,0.1,1.8-0.3c0.8-0.5,1.4-1.2,1.9-2c0.6-1.1,1.5-1.6,2.8-1.4c0.3,0,0.6,0,1,0"
		/>
</g>
<g id="LI">
	<path fill="none" stroke="#000000" stroke-linecap="round" stroke-linejoin="round" stroke-miterlimit="10" d="M46.1,5.8
		c-0.1,0.6,0,1.2,0.5,1.7c0.9,0.8,0.8,1.9,0.7,2.9c-0.5,3.2-0.4,6.5-0.7,9.7c-0.2,2.5-0.5,5-0.5,7.6c0,0.9,0.1,1.9,0.5,2.8
		c0.6,1.1,1.2,1.3,2.5,1.1c1.6-2.1,3-4.4,4.4-6.6c0.9-0.3,1.8-0.2,2.7-0.3l-0.3-6.2c1.4,2.6,0.5,5.3,0.5,7.9c0,1.3,0.2,2.7-0.2,4
		c-0.1,0.5,0.3,0.9,0.5,1.3h0.2c1,0.6,1.8,0.5,2.8-0.4c2.2-1.9,3.3-4.6,4.6-7.1"/>
</g>
<g id="L">
	<path fill="none" stroke="#000000" stroke-linecap="round" stroke-linejoin="round" stroke-miterlimit="10" d="M35.6,6.1
		c0.1,0.4,0,0.7,0.4,1.1c0.8,0.9,1.2,1.9,0.8,3.2c-0.3,1-0.2,2.2-0.2,3.2c0,1.9-0.1,3.9-0.4,5.8c-0.2,2-0.1,3.9-0.5,5.9
		c-0.3,1.6-0.1,3.3,0.4,4.9c0.5,1.5,2,1.8,3.1,0.6c1.2-1.3,2.1-2.9,3-4.5c0.7-1.3,1.6-1.8,3-1.7c0.2,0,0.5,0,0.7,0"/>
</g>
<g id="A">
	<path fill="none" stroke="#000000" stroke-linecap="round" stroke-linejoin="round" stroke-miterlimit="10" d="M4.7,35.6
		c0,0,2.5,13.6,5.7-13.1s9.7-14.3,9.7-14.3s2.6,34.7,11.5,19.5"/>
	<path fill="none" stroke="#000000" stroke-linecap="round" stroke-linejoin="round" stroke-miterlimit="10" d="M2.3,19.7
		c0,0,4.8,5.8,19.4-1.4c0,0,7.2-3.6,7.4-2.7"/>
</g>
</svg>
